<svg xmlns="http://www.w3.org/2000/svg" xmlns:xlink="http://www.w3.org/1999/xlink" version="1.1" width="269.8715904791039" height="376.2102745611351" viewBox="-4.754996351345463 -4.67819636259882 269.8715904791039 376.2102745611351">
  <defs>
    <linearGradient id="grad_1" y2="1" x2="0">
      <stop offset="0" stop-color="#020F32" stop-opacity="1"/>
      <stop offset="1" stop-color="#2F3F60" stop-opacity="1"/>
    </linearGradient>
    <linearGradient id="grad_2" y2="1" x2="0">
      <stop offset="0" stop-color="#384768" stop-opacity="1"/>
      <stop offset="1" stop-color="#7E8A9A" stop-opacity="1"/>
    </linearGradient>
    <linearGradient id="grad_3" y2="1" x2="0">
      <stop offset="0" stop-color="#091638" stop-opacity="1"/>
      <stop offset="1" stop-color="#667384" stop-opacity="1"/>
    </linearGradient>
    <linearGradient id="grad_4" y2="1" x2="0">
      <stop offset="0" stop-color="#112041" stop-opacity="1"/>
      <stop offset="1" stop-color="#253453" stop-opacity="1"/>
    </linearGradient>
    <linearGradient id="grad_5" y2="1" x2="0">
      <stop offset="0" stop-color="#28385A" stop-opacity="1"/>
      <stop offset="1" stop-color="#646D7C" stop-opacity="1"/>
    </linearGradient>
    <linearGradient id="grad_6" y2="1" x2="0">
      <stop offset="0" stop-color="#000F30" stop-opacity="1"/>
      <stop offset="1" stop-color="#3A476A" stop-opacity="1"/>
    </linearGradient>
    <linearGradient id="grad_7" y2="1" x2="0">
      <stop offset="0" stop-color="#28385A" stop-opacity="1"/>
      <stop offset="1" stop-color="#646D7C" stop-opacity="1"/>
    </linearGradient>
    <linearGradient id="grad_8" y2="1" x2="0">
      <stop offset="0" stop-color="#000F30" stop-opacity="1"/>
      <stop offset="1" stop-color="#3A476A" stop-opacity="1"/>
    </linearGradient>
    <linearGradient id="grad_9" y2="1" x2="0">
      <stop offset="0" stop-color="#30385D" stop-opacity="1"/>
      <stop offset="1" stop-color="#061437" stop-opacity="1"/>
    </linearGradient>
    <linearGradient id="grad_10" y2="1" x2="0">
      <stop offset="0" stop-color="#30385D" stop-opacity="1"/>
      <stop offset="1" stop-color="#061437" stop-opacity="1"/>
    </linearGradient>
    <linearGradient id="grad_11" y2="1" x2="0">
      <stop offset="0" stop-color="#30385D" stop-opacity="1"/>
      <stop offset="1" stop-color="#061437" stop-opacity="1"/>
    </linearGradient>
    <linearGradient id="grad_12" y2="1" x2="0">
      <stop offset="0" stop-color="#30385D" stop-opacity="1"/>
      <stop offset="1" stop-color="#061437" stop-opacity="1"/>
    </linearGradient>
    <linearGradient id="grad_13" y2="1" x2="0">
      <stop offset="0" stop-color="#30385D" stop-opacity="1"/>
      <stop offset="1" stop-color="#061437" stop-opacity="1"/>
    </linearGradient>
    <linearGradient id="grad_14" y2="1" x2="0">
      <stop offset="0" stop-color="#30385D" stop-opacity="1"/>
      <stop offset="1" stop-color="#061437" stop-opacity="1"/>
    </linearGradient>
    <radialGradient id="grad_15" cx="0.5119" cy="0.8248000000000001" r="1.07224">
      <stop offset="0" stop-color="#707A72" stop-opacity="1"/>
      <stop offset="1" stop-color="#707A72" stop-opacity="0"/>
    </radialGradient>
    <radialGradient id="grad_16" cx="0.512" cy="0.2799" r="0.93613">
      <stop offset="0" stop-color="#FDF7BB" stop-opacity="1"/>
      <stop offset="1" stop-color="#D0CE91" stop-opacity="1"/>
    </radialGradient>
    <linearGradient id="grad_17" x2="1">
      <stop offset="0" stop-color="#B0B9C0" stop-opacity="1"/>
      <stop offset="1" stop-color="#CDCFCA" stop-opacity="1"/>
    </linearGradient>
    <linearGradient id="grad_18" x2="1">
      <stop offset="0" stop-color="#CDCFCA" stop-opacity="1"/>
      <stop offset="1" stop-color="#B0B9C0" stop-opacity="1"/>
    </linearGradient>
    <radialGradient id="grad_19" cx="0.6875" cy="0.2812" r="0.93444">
      <stop offset="0" stop-color="#C0C9C8" stop-opacity="1"/>
      <stop offset="1" stop-color="#2B2F38" stop-opacity="1"/>
    </radialGradient>
    <radialGradient id="grad_20" cx="0.6875" cy="0.2812" r="0.93444">
      <stop offset="0" stop-color="#C0C9C8" stop-opacity="1"/>
      <stop offset="1" stop-color="#2B2F38" stop-opacity="1"/>
    </radialGradient>
  <linearGradient id="grad_1-.016829252243042,0,0,1.0212140083312988,-208.65,-2" y2="72.038" x2="1.071" x1="1.071" y1="57.741" gradientUnits="userSpaceOnUse">
      <stop offset="0" stop-color="#020F32" stop-opacity="1"/>
      <stop offset="1" stop-color="#2F3F60" stop-opacity="1"/>
    </linearGradient><linearGradient id="grad_2-.016829252243042,0,0,0.9946889281272888,-82.85,0.75" y2="301.1461" x2="1.0384" x1="1.0384" y1="71.3729" gradientUnits="userSpaceOnUse">
      <stop offset="0" stop-color="#384768" stop-opacity="1"/>
      <stop offset="1" stop-color="#7E8A9A" stop-opacity="1"/>
    </linearGradient><linearGradient id="grad_3-.016829252243042,0,0,1.0212140083312988,-228.25,-5.55" y2="282.4324" x2="29.0078" x1="29.0078" y1="70.0198" gradientUnits="userSpaceOnUse">
      <stop offset="0" stop-color="#091638" stop-opacity="1"/>
      <stop offset="1" stop-color="#667384" stop-opacity="1"/>
    </linearGradient><linearGradient id="grad_5-.016829252243042,0,0,0.9945946335792542,-229.8,-0.65" y2="280.8203" x2="73.2151" x1="73.2151" y1="70.9608" gradientUnits="userSpaceOnUse">
      <stop offset="0" stop-color="#28385A" stop-opacity="1"/>
      <stop offset="1" stop-color="#646D7C" stop-opacity="1"/>
    </linearGradient><linearGradient id="grad_7-.016829252243042,0,0,0.9945946335792542,-95.55,-0.65" y2="280.8203" x2="207.4651" x1="207.4651" y1="70.9608" gradientUnits="userSpaceOnUse">
      <stop offset="0" stop-color="#28385A" stop-opacity="1"/>
      <stop offset="1" stop-color="#646D7C" stop-opacity="1"/>
    </linearGradient><linearGradient id="grad_9-.016829252243042,0,0,0.9327087998390198,-229.25,17.95" y2="221.8868" x2="80.0695" x1="80.0695" y1="214.8915" gradientUnits="userSpaceOnUse">
      <stop offset="0" stop-color="#30385D" stop-opacity="1"/>
      <stop offset="1" stop-color="#061437" stop-opacity="1"/>
    </linearGradient><linearGradient id="grad_10-.016829252243042,0,0,0.9327087998390198,-110.8,17.8" y2="221.7368" x2="198.5195" x1="198.5195" y1="214.7415" gradientUnits="userSpaceOnUse">
      <stop offset="0" stop-color="#30385D" stop-opacity="1"/>
      <stop offset="1" stop-color="#061437" stop-opacity="1"/>
    </linearGradient><linearGradient id="grad_11-.016829252243042,0,0,0.9327087998390198,-95.85,-7.7" y2="196.2368" x2="213.4695" x1="213.4695" y1="189.2415" gradientUnits="userSpaceOnUse">
      <stop offset="0" stop-color="#30385D" stop-opacity="1"/>
      <stop offset="1" stop-color="#061437" stop-opacity="1"/>
    </linearGradient><linearGradient id="grad_12-.016829252243042,0,0,0.9327087998390198,-95.45,-22.2" y2="181.7368" x2="213.8695" x1="213.8695" y1="174.7415" gradientUnits="userSpaceOnUse">
      <stop offset="0" stop-color="#30385D" stop-opacity="1"/>
      <stop offset="1" stop-color="#061437" stop-opacity="1"/>
    </linearGradient><linearGradient id="grad_13-.016829252243042,0,0,0.9327087998390198,-245.6,-45.9" y2="158.0368" x2="63.7195" x1="63.7195" y1="151.0415" gradientUnits="userSpaceOnUse">
      <stop offset="0" stop-color="#30385D" stop-opacity="1"/>
      <stop offset="1" stop-color="#061437" stop-opacity="1"/>
    </linearGradient><linearGradient id="grad_14-.016829252243042,0,0,0.9327087998390198,-245.85,-60.75" y2="143.1868" x2="63.4695" x1="63.4695" y1="136.1915" gradientUnits="userSpaceOnUse">
      <stop offset="0" stop-color="#30385D" stop-opacity="1"/>
      <stop offset="1" stop-color="#061437" stop-opacity="1"/>
    </linearGradient><radialGradient id="grad_15-.7950376272201538,0,0,1.429460883140564,-145.3,-50.75" cx="145.3036" cy="345.3691" r="148.0457" gradientUnits="userSpaceOnUse">
      <stop offset="0" stop-color="#707A72" stop-opacity="1"/>
      <stop offset="1" stop-color="#707A72" stop-opacity="0"/>
    </radialGradient><radialGradient id="grad_16-.016829252243042,0,0,1.2935376167297363,-212,-103.4" cx="143.8549" cy="314.2357" r="75.0055" gradientUnits="userSpaceOnUse">
      <stop offset="0" stop-color="#FDF7BB" stop-opacity="1"/>
      <stop offset="1" stop-color="#D0CE91" stop-opacity="1"/>
    </radialGradient><linearGradient id="grad_17-.016829252243042,0,0,1.076414704322815,-210.9,-33.45" x2="99.7413" x1="83.9297" y1="311.5409" y2="311.5409" gradientUnits="userSpaceOnUse">
      <stop offset="0" stop-color="#B0B9C0" stop-opacity="1"/>
      <stop offset="1" stop-color="#CDCFCA" stop-opacity="1"/>
    </linearGradient><linearGradient id="grad_18-.016829252243042,0,0,1.076414704322815,-111,-33.45" x2="199.6413" x1="183.8297" y1="311.5409" y2="311.5409" gradientUnits="userSpaceOnUse">
      <stop offset="0" stop-color="#CDCFCA" stop-opacity="1"/>
      <stop offset="1" stop-color="#B0B9C0" stop-opacity="1"/>
    </linearGradient><radialGradient id="grad_19-.016829252243042,0,0,1.0212140083312988,-98.35,21.9" cx="173.3976" cy="350.7305" r="7.6177" gradientUnits="userSpaceOnUse">
      <stop offset="0" stop-color="#C0C9C8" stop-opacity="1"/>
      <stop offset="1" stop-color="#2B2F38" stop-opacity="1"/>
    </radialGradient><radialGradient id="grad_20-.016829252243042,0,0,1.0212140083312988,-226.2,21.9" cx="45.5476" cy="350.7305" r="7.6177" gradientUnits="userSpaceOnUse">
      <stop offset="0" stop-color="#C0C9C8" stop-opacity="1"/>
      <stop offset="1" stop-color="#2B2F38" stop-opacity="1"/>
    </radialGradient></defs>
  <!-- Exported by Scratch - http://scratch.mit.edu/ -->
  <path id="ID0.6611507418565452" fill="#7B8396" stroke="none" stroke-linecap="round" d="M 1.5586 32.5126 L 259.5791 32.5126 L 259.5791 57.7877 L 1.5586 57.7877 L 1.5586 32.5126 Z " stroke-width="1.6544385560834973"/>
  <path id="ID0.721833951305598" fill="#667183" stroke="none" stroke-linecap="round" d="M 47.9091 32.14 L 50.32 32.0803 L 62.5025 45.9082 L 59.3677 46.8774 L 47.9091 32.14 Z " stroke-width="1.0190196830409604"/>
  <path id="ID0.2545504798181355" fill="#667183" stroke="none" d="M 1.7992 45.2365 L 259.8197 45.2365 L 259.8197 47.7895 L 1.7992 47.7895 L 1.7992 45.2365 Z " stroke-width="1.020026124598917"/>
  <path id="ID0.721833951305598" fill="#667183" stroke="none" stroke-linecap="round" d="M 175.7591 31.94 L 178.17 31.8803 L 190.3525 45.7082 L 187.2177 46.6774 L 175.7591 31.94 Z " stroke-width="1.0190196830409604"/>
  <path id="ID0.721833951305598" fill="#667183" stroke="none" stroke-linecap="round" d="M 133.8262 46.7265 L 136.3647 47.0157 L 145.2559 56.745 L 142.4676 56.8916 L 133.8262 46.7265 Z " stroke-width="1.0190196830409604"/>
  <path id="ID0.8352814866229892" fill="url(#grad_1-.016829252243042,0,0,1.0212140083312988,-208.65,-2)" stroke="none" d="M 1.071 57.741 L 259.0915 57.741 L 259.0915 72.038 L 1.071 72.038 L 1.071 57.741 Z " stroke-width="1.0190239886845702"/>
  <path id="ID0.3331870501860976" fill="url(#grad_2-.016829252243042,0,0,0.9946889281272888,-82.85,0.75)" stroke="none" d="M 1.0384 71.3729 L 258.8046 71.3729 L 258.8046 301.1461 L 1.0384 301.1461 L 1.0384 71.3729 Z " stroke-width="1.0058200117208245"/>
  <g id="ID0.7223656428977847">
    <path id="ID0.34808518504723907" fill="url(#grad_3-.016829252243042,0,0,1.0212140083312988,-228.25,-5.55)" stroke="url(#grad_4)" stroke-width="2.0380479773691405" stroke-linecap="round" d="M 257.286 271.199 L 245.084 281.9217 L 169.3302 281.9217 L 156.1115 269.1566 L 132.216 269.1566 L 117.9804 282.4324 L 41.2098 282.4324 L 29.0078 270.1778 L 29.0078 85.338 L 40.7013 70.5304 L 118.9972 70.0198 L 132.7244 82.2744 L 153.5694 81.7638 L 165.7713 70.5304 L 245.084 71.5517 L 257.7944 83.2956 L 257.7944 271.7096 Z "/>
    <path id="ID0.7568223886191845" fill="#646D7C" stroke="#273457" stroke-width="2.0615061254500096" d="M 75.3705 209.1474 L 209.0368 209.1474 L 209.0368 213.2322 L 75.3705 213.2322 L 75.3705 209.1474 Z "/>
    <path id="ID0.7568223886191845" fill="#3E4B66" stroke="#142244" stroke-width="1.5399272975395542" d="M 28.412 144.5474 L 76.9724 144.5474 L 76.9724 148.6322 L 28.412 148.6322 L 28.412 144.5474 Z "/>
    <path id="ID0.7568223886191845" fill="#3E4B66" stroke="#142244" stroke-width="1.5399272975395542" stroke-linecap="round" d="M 208.762 183.3974 L 257.3224 183.3974 L 257.3224 187.4822 L 208.762 187.4822 L 208.762 183.3974 Z "/>
    <path id="ID0.32592130033299327" fill="url(#grad_5-.016829252243042,0,0,0.9945946335792542,-229.8,-0.65)" stroke="url(#grad_6)" stroke-width="2.0115467746795224" d="M 73.2151 70.9608 L 77.2824 70.9608 L 77.2824 280.8203 L 73.2151 280.8203 L 73.2151 70.9608 Z "/>
    <path id="ID0.32592130033299327" fill="url(#grad_7-.016829252243042,0,0,0.9945946335792542,-95.55,-0.65)" stroke="url(#grad_8)" stroke-width="2.0115467746795224" d="M 207.4651 70.9608 L 211.5324 70.9608 L 211.5324 280.8203 L 207.4651 280.8203 L 207.4651 70.9608 Z "/>
    <path id="ID0.512951236218214" fill="#8E8214" stroke="#77680D" stroke-width="2.0235099636919958" stroke-linecap="round" d="M 31.1094 199.6579 L 255.6037 199.6579 L 255.6037 209.8701 L 31.1094 209.8701 L 31.1094 199.6579 Z "/>
    <g id="ID0.4395590336062014">
      <path id="ID0.5190845993347466" fill="url(#grad_9-.016829252243042,0,0,0.9327087998390198,-229.25,17.95)" stroke="none" d="M 83.5775 214.8915 C 84.5455 214.8915 85.422 215.2832 86.0576 215.9165 C 86.6921 216.5498 87.0856 217.4238 87.0856 218.3891 C 87.0856 219.3545 86.6921 220.2284 86.0576 220.8617 C 85.422 221.495 84.5455 221.8868 83.5775 221.8868 C 82.6095 221.8868 81.733 221.495 81.0975 220.8617 C 80.463 220.2284 80.0695 219.3545 80.0695 218.3891 C 80.0695 217.4238 80.463 216.5498 81.0975 215.9165 C 81.733 215.2832 82.6095 214.8915 83.5775 214.8915 Z " stroke-width="0.9756760306357558"/>
      <path id="ID0.5088105890899897" fill="#4D5F73" stroke="none" d="M 83.7002 216.6133 C 84.0022 216.6133 84.2747 216.791 84.473 217.0769 C 84.6713 217.3639 84.7933 217.7591 84.7933 218.1962 C 84.7933 218.6332 84.6713 219.0285 84.473 219.3154 C 84.2747 219.6014 84.0022 219.779 83.7002 219.779 C 83.3982 219.779 83.1257 219.6014 82.9274 219.3154 C 82.7291 219.0285 82.6071 218.6332 82.6071 218.1962 C 82.6071 217.7591 82.7291 217.3639 82.9274 217.0769 C 83.1257 216.791 83.3982 216.6133 83.7002 216.6133 Z " stroke-width="1.0190239886845702"/>
    </g>
    <g id="ID0.4395590336062014">
      <path id="ID0.5190845993347466" fill="url(#grad_10-.016829252243042,0,0,0.9327087998390198,-110.8,17.8)" stroke="none" d="M 202.0275 214.7415 C 202.9955 214.7415 203.872 215.1332 204.5076 215.7665 C 205.1421 216.3998 205.5356 217.2738 205.5356 218.2391 C 205.5356 219.2045 205.1421 220.0784 204.5076 220.7117 C 203.872 221.345 202.9955 221.7368 202.0275 221.7368 C 201.0595 221.7368 200.183 221.345 199.5475 220.7117 C 198.913 220.0784 198.5195 219.2045 198.5195 218.2391 C 198.5195 217.2738 198.913 216.3998 199.5475 215.7665 C 200.183 215.1332 201.0595 214.7415 202.0275 214.7415 Z " stroke-width="0.9756760306357558"/>
      <path id="ID0.5088105890899897" fill="#4D5F73" stroke="none" d="M 202.1502 216.5133 C 202.4522 216.5133 202.7247 216.691 202.923 216.9769 C 203.1213 217.2639 203.2433 217.6591 203.2433 218.0962 C 203.2433 218.5332 203.1213 218.9285 202.923 219.2154 C 202.7247 219.5014 202.4522 219.679 202.1502 219.679 C 201.8482 219.679 201.5757 219.5014 201.3774 219.2154 C 201.1791 218.9285 201.0571 218.5332 201.0571 218.0962 C 201.0571 217.6591 201.1791 217.2639 201.3774 216.9769 C 201.5757 216.691 201.8482 216.5133 202.1502 216.5133 Z " stroke-width="1.0190239886845702"/>
    </g>
    <g id="ID0.4395590336062014">
      <path id="ID0.5190845993347466" fill="url(#grad_11-.016829252243042,0,0,0.9327087998390198,-95.85,-7.7)" stroke="none" d="M 216.9775 189.2415 C 217.9455 189.2415 218.822 189.6332 219.4576 190.2665 C 220.0921 190.8998 220.4856 191.7738 220.4856 192.7391 C 220.4856 193.7045 220.0921 194.5784 219.4576 195.2117 C 218.822 195.845 217.9455 196.2368 216.9775 196.2368 C 216.0095 196.2368 215.133 195.845 214.4975 195.2117 C 213.863 194.5784 213.4695 193.7045 213.4695 192.7391 C 213.4695 191.7738 213.863 190.8998 214.4975 190.2665 C 215.133 189.6332 216.0095 189.2415 216.9775 189.2415 Z " stroke-width="0.9756760306357558"/>
      <path id="ID0.5088105890899897" fill="#4D5F73" stroke="none" d="M 217.1002 190.8633 C 217.4022 190.8633 217.6747 191.041 217.873 191.3269 C 218.0713 191.6139 218.1933 192.0091 218.1933 192.4462 C 218.1933 192.8832 218.0713 193.2785 217.873 193.5654 C 217.6747 193.8514 217.4022 194.029 217.1002 194.029 C 216.7982 194.029 216.5257 193.8514 216.3274 193.5654 C 216.1291 193.2785 216.0071 192.8832 216.0071 192.4462 C 216.0071 192.0091 216.1291 191.6139 216.3274 191.3269 C 216.5257 191.041 216.7982 190.8633 217.1002 190.8633 Z " stroke-width="1.0190239886845702"/>
    </g>
    <g id="ID0.4395590336062014">
      <path id="ID0.5190845993347466" fill="url(#grad_12-.016829252243042,0,0,0.9327087998390198,-95.45,-22.2)" stroke="none" d="M 217.3775 174.7415 C 218.3455 174.7415 219.222 175.1332 219.8576 175.7665 C 220.4921 176.3998 220.8856 177.2738 220.8856 178.2391 C 220.8856 179.2045 220.4921 180.0784 219.8576 180.7117 C 219.222 181.345 218.3455 181.7368 217.3775 181.7368 C 216.4095 181.7368 215.533 181.345 214.8975 180.7117 C 214.263 180.0784 213.8695 179.2045 213.8695 178.2391 C 213.8695 177.2738 214.263 176.3998 214.8975 175.7665 C 215.533 175.1332 216.4095 174.7415 217.3775 174.7415 Z " stroke-width="0.9756760306357558"/>
      <path id="ID0.5088105890899897" fill="#4D5F73" stroke="none" d="M 217.5002 176.3133 C 217.8022 176.3133 218.0747 176.491 218.273 176.7769 C 218.4713 177.0639 218.5933 177.4591 218.5933 177.8962 C 218.5933 178.3332 218.4713 178.7285 218.273 179.0154 C 218.0747 179.3014 217.8022 179.479 217.5002 179.479 C 217.1982 179.479 216.9257 179.3014 216.7274 179.0154 C 216.5291 178.7285 216.4071 178.3332 216.4071 177.8962 C 216.4071 177.4591 216.5291 177.0639 216.7274 176.7769 C 216.9257 176.491 217.1982 176.3133 217.5002 176.3133 Z " stroke-width="1.0190239886845702"/>
    </g>
    <path id="ID0.4690239178016782" fill="#6E673D" stroke="none" stroke-linecap="round" d="M 30.5629 191.4988 L 256.5532 191.4988 L 256.5532 194.5625 L 30.5629 194.5625 L 30.5629 191.4988 Z " stroke-width="1.0218974847866742"/>
    <g id="ID0.4395590336062014">
      <path id="ID0.5190845993347466" fill="url(#grad_13-.016829252243042,0,0,0.9327087998390198,-245.6,-45.9)" stroke="none" d="M 67.2275 151.0415 C 68.1955 151.0415 69.072 151.4332 69.7076 152.0665 C 70.3421 152.6998 70.7356 153.5738 70.7356 154.5391 C 70.7356 155.5045 70.3421 156.3784 69.7076 157.0117 C 69.072 157.645 68.1955 158.0368 67.2275 158.0368 C 66.2595 158.0368 65.383 157.645 64.7475 157.0117 C 64.113 156.3784 63.7195 155.5045 63.7195 154.5391 C 63.7195 153.5738 64.113 152.6998 64.7475 152.0665 C 65.383 151.4332 66.2595 151.0415 67.2275 151.0415 Z " stroke-width="0.9756760306357558"/>
      <path id="ID0.5088105890899897" fill="#4D5F73" stroke="none" d="M 67.3502 152.6133 C 67.6522 152.6133 67.9247 152.791 68.123 153.0769 C 68.3213 153.3639 68.4433 153.7591 68.4433 154.1962 C 68.4433 154.6332 68.3213 155.0285 68.123 155.3154 C 67.9247 155.6014 67.6522 155.779 67.3502 155.779 C 67.0482 155.779 66.7757 155.6014 66.5774 155.3154 C 66.3791 155.0285 66.2571 154.6332 66.2571 154.1962 C 66.2571 153.7591 66.3791 153.3639 66.5774 153.0769 C 66.7757 152.791 67.0482 152.6133 67.3502 152.6133 Z " stroke-width="1.0190239886845702"/>
    </g>
    <g id="ID0.4395590336062014">
      <path id="ID0.5190845993347466" fill="url(#grad_14-.016829252243042,0,0,0.9327087998390198,-245.85,-60.75)" stroke="none" d="M 66.9775 136.1915 C 67.9455 136.1915 68.822 136.5832 69.4576 137.2165 C 70.0921 137.8498 70.4856 138.7238 70.4856 139.6891 C 70.4856 140.6545 70.0921 141.5284 69.4576 142.1617 C 68.822 142.795 67.9455 143.1868 66.9775 143.1868 C 66.0095 143.1868 65.133 142.795 64.4975 142.1617 C 63.863 141.5284 63.4695 140.6545 63.4695 139.6891 C 63.4695 138.7238 63.863 137.8498 64.4975 137.2165 C 65.133 136.5832 66.0095 136.1915 66.9775 136.1915 Z " stroke-width="0.9756760306357558"/>
      <path id="ID0.5088105890899897" fill="#4D5F73" stroke="none" d="M 67.1002 137.8133 C 67.4022 137.8133 67.6747 137.991 67.873 138.2769 C 68.0713 138.5639 68.1933 138.9591 68.1933 139.3962 C 68.1933 139.8332 68.0713 140.2285 67.873 140.5154 C 67.6747 140.8014 67.4022 140.979 67.1002 140.979 C 66.7982 140.979 66.5257 140.8014 66.3274 140.5154 C 66.1291 140.2285 66.0071 139.8332 66.0071 139.3962 C 66.0071 138.9591 66.1291 138.5639 66.3274 138.2769 C 66.5257 137.991 66.7982 137.8133 67.1002 137.8133 Z " stroke-width="1.0190239886845702"/>
    </g>
  </g>
  <path id="ID0.49426748091354966" fill="url(#grad_15-.7950376272201538,0,0,1.429460883140564,-145.3,-50.75)" stroke="none" stroke-linecap="round" d="M 143.8949 246.5779 C 159.9619 246.5779 174.5214 253.6251 185.0636 265.0122 C 195.6058 276.3978 201.5694 291.513 202.1314 309.4741 C 202.7253 328.4431 197.6999 352.6839 188.1388 360.9347 C 173.9943 372.9108 156.7714 361.2649 141.1521 361.5065 C 134.3219 361.6123 127.3979 362.3899 120.6401 361.6495 C 114.8999 361.0205 110.4358 364.9215 103.5468 357.2181 C 94.8109 346.47 85.8397 328.6404 85.6584 309.4741 C 85.4883 291.4887 92.1841 276.3978 102.7263 265.0122 C 113.2685 253.6251 127.828 246.5779 143.8949 246.5779 Z " stroke-width="1.156599162442385"/>
  <g id="ID0.8044778956100345">
    <path id="ID0.6010083784349263" fill="#A6AEA3" stroke="none" d="M 1.5744 310.7392 L 258.578 310.7392 L 258.578 310.7392 L 1.5744 310.7392 L 1.5744 310.7392 Z " stroke-width="1.0190239886845702"/>
    <path id="ID0.7453625467605889" fill="#9EAABA" stroke="none" d="M 1.066 302.5363 L 258.578 302.5363 L 258.578 311.472 L 1.066 311.472 L 1.066 302.5363 Z " stroke-width="1.1803340705587444"/>
    <path id="ID0.6534577370621264" fill="#2A3338" stroke="none" stroke-linecap="round" d="M 1.066 301.2419 L 258.7306 300.9866 L 258.6289 302.5695 L 1.1169 302.5184 L 1.066 301.2419 Z " stroke-width="1.0190239886845702"/>
  </g>
  <path id="ID0.12487048050388694" fill="#6E7788" stroke="none" stroke-linecap="round" d="M 11.0491 302.5659 L 12.8285 302.6191 L 6.6767 311.6036 L 3.8804 311.6036 L 11.0491 302.5659 Z " stroke-width="1.0403056845575889"/>
  <path id="ID0.12487048050388694" fill="#6E7788" stroke="none" stroke-linecap="round" d="M 141.0491 302.3659 L 142.8285 302.4191 L 136.6767 311.4036 L 133.8804 311.4036 L 141.0491 302.3659 Z " stroke-width="1.0403056845575889"/>
  <path id="ID0.4727738657966256" fill="#C7D0D5" stroke="none" d="M 0.5445 311.4991 L 258.3107 311.4991 L 258.3107 321.2006 L 0.5445 321.2006 L 0.5445 311.4991 Z " stroke-width="1.0190239886845702"/>
  <path id="ID0.12487048050388694" fill="#AFBABE" stroke="#AFBABE" stroke-linecap="round" d="M 44.239 311.7837 L 47.0353 311.6859 L 40.4767 320.5857 L 37.6804 320.5857 L 44.239 311.7837 Z " stroke-width="0.9976046635824098"/>
  <path id="ID0.12487048050388694" fill="#AFBABE" stroke="#AFBABE" stroke-linecap="round" d="M 223.789 311.8837 L 226.5853 311.7859 L 220.0267 320.6857 L 217.2304 320.6857 L 223.789 311.8837 Z " stroke-width="0.9976046927991326"/>
  <path id="ID0.24873586557805538" fill="url(#grad_16-.016829252243042,0,0,1.2935376167297363,-212,-103.4)" stroke="none" stroke-linecap="round" d="M 99.6582 311.5022 L 192.0371 311.5669 L 185.2752 321.2684 L 93.303 321.2037 L 99.6582 311.5022 Z " stroke-width="1.1634391462624916"/>
  <path id="ID0.14749751519411802" fill="url(#grad_17-.016829252243042,0,0,1.076414704322815,-210.9,-33.45)" stroke="none" stroke-linecap="round" d="M 90.0815 311.5409 L 99.7413 311.5947 L 93.3353 321.2286 L 83.9296 321.1748 L 90.0815 311.5409 Z " stroke-width="1.0470459263803849"/>
  <path id="ID0.14749751519411802" fill="url(#grad_18-.016829252243042,0,0,1.076414704322815,-111,-33.45)" stroke="none" stroke-linecap="round" d="M 189.9815 311.5409 L 199.6413 311.5947 L 193.2353 321.2286 L 183.8296 321.1748 L 189.9815 311.5409 Z " stroke-width="1.0470459263803849"/>
  <path id="ID0.43424479104578495" fill="#B6C0C9" stroke="none" d="M 0.5487 321.2006 L 258.3149 321.2006 L 258.3149 329.3703 L 0.5487 329.3703 L 0.5487 321.2006 Z " stroke-width="1.0190239886845702"/>
  <path id="ID0.15323720825836062" fill="#D7E2E4" stroke="none" d="M 0.5445 329.365 L 258.3107 329.365 L 258.3107 332.684 L 0.5445 332.684 L 0.5445 329.365 Z " stroke-width="1.0190239886845702"/>
  <path id="ID0.18005599500611424" fill="#9BA6B8" stroke="none" d="M 0.5809 332.684 L 258.2963 332.684 L 258.2963 345.4492 L 0.5809 345.4492 L 0.5809 332.684 Z " stroke-width="1.0184244081008986"/>
  <path id="ID0.5528012593276799" fill="#707B8D" stroke="#707B8D" stroke-width="2.0380479773691405" stroke-linecap="round" d="M 7.4165 344.212 L 108.0826 344.7226 C 141.4163 344.7308 202.1952 345.368 249.1677 344.4673 C 260.911 344.2416 253.5848 343.248 254.8111 341.8122 C 255.3205 341.2158 253.4495 340.6582 252.6249 340.3825 C 249.73 339.4154 246.591 339.2346 243.7276 338.1358 C 241.7824 337.3781 240.4351 334.9466 238.3384 334.8679 C 236.4431 334.7964 235.1853 337.0206 233.4068 337.7273 C 231.1078 338.6658 228.6857 339.3388 226.1873 339.7697 C 223.0372 340.313 222.907 340.6991 216.6291 340.6378 C 191.5165 340.3906 166.3032 339.9474 141.2313 339.0038 C 134.9188 338.7679 134.2924 338.3503 131.063 337.421 C 128.4487 336.6683 126.3439 333.955 123.6401 333.9999 C 120.4391 334.053 117.8493 336.942 114.7937 337.7784 C 110.6552 338.9119 109.5184 339.7279 102.0833 339.8719 C 72.3421 340.4489 42.5012 339.6829 12.7549 339.6166 C 5.3178 339.6002 10.527 339.588 9.3993 339.7187 C 6.8125 340.0485 4.0335 339.9178 1.6206 340.9952 C 1.0156 341.2658 1.6328 342.5454 2.2307 342.8844 C 3.7793 343.7729 -0.9632 344.0813 7.4165 344.212 Z "/>
  <path id="ID0.5321022821590304" fill="#707B8D" stroke="none" d="M 0.4232 338.5344 L 9.778 338.5344 L 6.4733 345.4276 L 0.474 345.1723 L 0.4232 338.5344 Z " stroke-width="1.0190239886845702"/>
  <g id="ID0.9034140198491514">
    <path id="ID0.12487048050388694" fill="#6E7788" stroke="none" stroke-linecap="round" d="M 129.1991 320.7659 L 130.9785 320.8191 L 125.2843 329.272 L 122.5388 329.0594 L 129.1991 320.7659 Z " stroke-width="1.0403056845575889"/>
    <path id="ID0.09966554027050734" fill="#606D7F" stroke="none" d="M 122.4938 329.2114 L 125.2901 329.2114 L 125.2901 345.704 L 122.4938 345.704 L 122.4938 329.2114 Z " stroke-width="1.0095548845624605"/>
  </g>
  <path id="ID0.12487048050388694" fill="#6E7788" stroke="none" stroke-linecap="round" d="M 244.0991 321.0659 L 245.8785 321.1191 L 239.7267 330.1036 L 236.9304 330.1036 L 244.0991 321.0659 Z " stroke-width="1.0403056845575889"/>
  <path id="ID0.09966554027050734" fill="#606D7F" stroke="none" d="M 236.9438 330.0513 L 239.7401 330.0513 L 239.7401 345.778 L 236.9438 345.778 L 236.9438 330.0513 Z " stroke-width="0.9829275000114506"/>
  <path id="ID0.0830950359813869" fill="#1C2032" stroke="none" d="M 0.4497 345.112 L 258.5201 345.1631 L 258.5201 360.9919 L 0.4497 361.1961 L 0.4497 345.112 Z " stroke-width="1.0200241004058166"/>
  <path id="ID0.08515737438574433" fill="none" stroke="#01010B" stroke-width="10.35639272519764" stroke-linecap="round" d="M 67.1179 355.2309 L 148.9726 355.2309 "/>
  <g id="ID0.05169018730521202">
    <path id="ID0.08515737438574433" fill="none" stroke="#01010B" stroke-width="9.62264645487021" stroke-linecap="round" d="M 195.0179 356.2519 L 254.5024 356.2519 "/>
    <path id="ID0.9471154632046819" fill="#01010B" stroke="none" d="M 254.2518 350.7188 L 258.5733 350.7188 L 258.5733 361.6284 L 254.2518 361.6284 L 254.2518 350.7188 Z " stroke-width="1.2028308068587763"/>
  </g>
  <g id="ID0.05169018730521202">
    <path id="ID0.08515737438574433" fill="none" stroke="#01010B" stroke-width="9.62264645487021" stroke-linecap="round" d="M 22.4421 355.6519 L 4.6476 355.6519 "/>
    <path id="ID0.9471154632046819" fill="#01010B" stroke="none" d="M 4.8982 350.2688 L 0.5767 350.2688 L 0.5767 361.1784 L 4.8982 361.1784 L 4.8982 350.2688 Z " stroke-width="1.2028308068587763"/>
  </g>
  <g id="ID0.3121946039609611">
    <path id="ID0.206262466032058" fill="#0F1025" stroke="none" d="M 160.9415 345.6673 L 164.5004 345.6673 L 164.5004 360.9855 L 160.9415 360.9855 L 160.9415 345.6673 Z " stroke-width="1.0190239886845702"/>
    <path id="ID0.8209829186089337" fill="#4E505C" stroke="none" d="M 179.9371 345.5444 L 183.496 345.5444 L 183.496 361.1179 L 179.9371 361.1179 L 179.9371 345.5444 Z " stroke-width="1.0134668113397194"/>
    <path id="ID0.07143688248470426" fill="#0B0F18" stroke="none" d="M 171.7495 346.3991 C 173.3978 346.3991 174.8915 347.0711 175.9724 348.1577 C 177.0543 349.2432 177.7233 350.7434 177.7233 352.3988 C 177.7233 354.0541 177.0543 355.5543 175.9724 356.6399 C 174.8915 357.7264 173.3978 358.3984 171.7495 358.3984 C 170.1012 358.3984 168.6075 357.7264 167.5266 356.6399 C 166.4447 355.5543 165.7756 354.0541 165.7756 352.3988 C 165.7756 350.7434 166.4447 349.2432 167.5266 348.1577 C 168.6075 347.0711 170.1012 346.3991 171.7495 346.3991 Z " stroke-width="1.0190239886845702"/>
    <path id="ID0.21668807603418827" fill="url(#grad_19-.016829252243042,0,0,1.0212140083312988,-98.35,21.9)" stroke="none" d="M 171.8724 348.4332 C 172.995 348.4332 174.0118 348.8907 174.748 349.63 C 175.4842 350.3694 175.9397 351.3906 175.9397 352.518 C 175.9397 353.6455 175.4842 354.6667 174.748 355.406 C 174.0118 356.1454 172.995 356.6029 171.8724 356.6029 C 170.7498 356.6029 169.733 356.1454 168.9968 355.406 C 168.2606 354.6667 167.8051 353.6455 167.8051 352.518 C 167.8051 351.3906 168.2606 350.3694 168.9968 349.63 C 169.733 348.8907 170.7498 348.4332 171.8724 348.4332 Z " stroke-width="1.0190239886845702"/>
  </g>
  <g id="ID0.3121946039609611">
    <path id="ID0.206262466032058" fill="#0F1025" stroke="none" d="M 33.0915 345.6673 L 36.6504 345.6673 L 36.6504 360.9855 L 33.0915 360.9855 L 33.0915 345.6673 Z " stroke-width="1.0190239886845702"/>
    <path id="ID0.8209829186089337" fill="#4E505C" stroke="none" d="M 52.0871 345.5444 L 55.646 345.5444 L 55.646 361.1179 L 52.0871 361.1179 L 52.0871 345.5444 Z " stroke-width="1.0134668113397194"/>
    <path id="ID0.07143688248470426" fill="#0B0F18" stroke="none" d="M 43.8995 346.3991 C 45.5478 346.3991 47.0415 347.0711 48.1224 348.1577 C 49.2043 349.2432 49.8733 350.7434 49.8733 352.3988 C 49.8733 354.0541 49.2043 355.5543 48.1224 356.6399 C 47.0415 357.7264 45.5478 358.3984 43.8995 358.3984 C 42.2512 358.3984 40.7575 357.7264 39.6766 356.6399 C 38.5947 355.5543 37.9256 354.0541 37.9256 352.3988 C 37.9256 350.7434 38.5947 349.2432 39.6766 348.1577 C 40.7575 347.0711 42.2512 346.3991 43.8995 346.3991 Z " stroke-width="1.0190239886845702"/>
    <path id="ID0.21668807603418827" fill="url(#grad_20-.016829252243042,0,0,1.0212140083312988,-226.2,21.9)" stroke="none" d="M 44.0224 348.4332 C 45.145 348.4332 46.1618 348.8907 46.898 349.63 C 47.6342 350.3694 48.0897 351.3906 48.0897 352.518 C 48.0897 353.6455 47.6342 354.6667 46.898 355.406 C 46.1618 356.1454 45.145 356.6029 44.0224 356.6029 C 42.8998 356.6029 41.883 356.1454 41.1468 355.406 C 40.4106 354.6667 39.9551 353.6455 39.9551 352.518 C 39.9551 351.3906 40.4106 350.3694 41.1468 349.63 C 41.883 348.8907 42.8998 348.4332 44.0224 348.4332 Z " stroke-width="1.0190239886845702"/>
  </g>
  <path id="ID0.615911178290844" fill="#707B8D" stroke="none" stroke-linecap="round" d="M 249.4 338.55 L 258.3 338.55 L 258.3 345.15 L 249.4 345.15 L 249.4 338.55 Z " stroke-width="1"/>
  <path id="ID0.3960007708519697" fill="#9AA8B3" stroke="none" d="M 1.5775 16.3071 L 259.9384 16.5877 L 259.7854 35.5959 L 1.5775 35.5959 L 1.5775 16.3071 Z " stroke-width="1.2265140095175073"/>
  <path id="ID0.4972577062435448" fill="#B5BFCB" stroke="none" d="M 1.2775 32.441 L 259.6894 32.441 L 259.6894 36.2988 L 1.2775 35.9481 L 1.2775 32.441 Z " stroke-width="1.2265140095175073"/>
  <path id="ID0.4972577062435448" fill="#B5BFCB" stroke="none" d="M 1.5775 16.641 L 259.9384 16.5709 L 259.9384 20.0078 L 1.5775 20.1481 L 1.5775 16.641 Z " stroke-width="1.2265140095175073"/>
  <path id="ID0.6952670714817941" fill="#64707C" stroke="none" d="M 51.2661 16.1846 L 53.5571 16.1846 L 53.5571 36.4412 L 51.2661 36.4412 L 51.2661 16.1846 Z " stroke-width="1.222370448170769"/>
  <path id="ID0.6952670714817941" fill="#64707C" stroke="none" d="M 178.7861 16.6978 L 181.5862 16.6978 L 181.9935 36.2287 L 179.0916 36.2287 L 178.7861 16.6978 Z " stroke-width="1.210063765665897"/>
  <g id="ID0.19968390185385942">
    <path id="ID0.2293917709030211" fill="#343547" stroke="none" stroke-linecap="round" d="M 2.0534 0.5 L 259.8196 0.5 L 259.8196 15.503 L 2.0534 15.503 L 2.0534 0.5 Z " stroke-width="1.0445964538258823"/>
    <path id="ID0.5092153903096914" fill="#020204" stroke="none" d="M 249.1521 0.8762 L 257.7952 0.8762 L 257.7952 11.3248 L 249.1521 11.3248 L 249.1521 0.8762 Z " stroke-width="1.0445964538258823"/>
    <path id="ID0.5092153903096914" fill="#020204" stroke="none" d="M 233.9021 1.0262 L 242.5452 1.0262 L 242.5452 11.4748 L 233.9021 11.4748 L 233.9021 1.0262 Z " stroke-width="1.0445964538258823"/>
    <g id="ID0.27441906183958054">
      <path id="ID0.8246211856603622" fill="#020204" stroke="none" stroke-linecap="round" d="M 217.8725 1.1374 C 219.7048 1.1514 221.8696 0.3905 223.4651 1.4053 C 224.3588 1.8811 223.6857 3.4115 223.4651 4.4863 C 223.1488 5.9866 222.8245 7.6562 221.7883 8.7472 C 220.7532 9.8392 219.3235 10.5143 217.7454 10.5143 C 216.1673 10.5143 214.7376 9.8392 213.7025 8.7472 C 212.6663 7.6562 212.1793 6.0284 212.0257 4.4863 C 211.9108 3.2603 211.6973 1.669 212.5341 1.1374 C 214.1784 0.2458 216.0981 1.1256 217.8725 1.1374 Z " stroke-width="1.0445964538258823"/>
      <path id="ID0.4703502100892365" fill="#858A8E" stroke="none" d="M 217.758 0.838 C 218.845 0.838 219.8303 1.258 220.5431 1.9369 C 221.2569 2.6158 221.6982 3.5535 221.6982 4.5887 C 221.6982 5.6239 221.2569 6.5616 220.5431 7.2405 C 219.8303 7.9194 218.845 8.3395 217.758 8.3395 C 216.671 8.3395 215.6857 7.9194 214.9729 7.2405 C 214.2591 6.5616 213.8178 5.6239 213.8178 4.5887 C 213.8178 3.5535 214.2591 2.6158 214.9729 1.9369 C 215.6857 1.258 216.671 0.838 217.758 0.838 Z " stroke-width="0.9780598308546722"/>
      <path id="ID0.9072000649757683" fill="#36374B" stroke="none" stroke-linecap="round" d="M 217.7412 2.98 C 218.1266 2.98 218.4763 3.145 218.7295 3.4118 C 218.9827 3.6787 219.1393 4.0473 219.1393 4.4535 C 219.1393 4.8596 218.9827 5.2283 218.7295 5.4951 C 218.4763 5.7619 218.1266 5.927 217.7412 5.927 C 217.3558 5.927 217.006 5.7619 216.7528 5.4951 C 216.4996 5.2283 216.343 4.8596 216.343 4.4535 C 216.343 4.0473 216.4996 3.6787 216.7528 3.4118 C 217.006 3.145 217.3558 2.98 217.7412 2.98 Z " stroke-width="1.0445964538258823"/>
    </g>
    <g id="ID0.27441906183958054">
      <path id="ID0.8246211856603622" fill="#020204" stroke="none" stroke-linecap="round" d="M 190.9225 1.2374 C 192.7548 1.2514 194.9196 0.4905 196.5151 1.5053 C 197.4088 1.9811 196.7357 3.5115 196.5151 4.5863 C 196.1988 6.0866 195.8745 7.7562 194.8383 8.8472 C 193.8032 9.9392 192.3735 10.6143 190.7954 10.6143 C 189.2173 10.6143 187.7876 9.9392 186.7525 8.8472 C 185.7163 7.7562 185.2293 6.1284 185.0757 4.5863 C 184.9608 3.3603 184.7473 1.769 185.5841 1.2374 C 187.2284 0.3458 189.1481 1.2256 190.9225 1.2374 Z " stroke-width="1.0445964538258823"/>
      <path id="ID0.4703502100892365" fill="#858A8E" stroke="none" d="M 190.808 0.938 C 191.895 0.938 192.8803 1.358 193.5931 2.0369 C 194.3069 2.7158 194.7482 3.6535 194.7482 4.6887 C 194.7482 5.7239 194.3069 6.6616 193.5931 7.3405 C 192.8803 8.0194 191.895 8.4395 190.808 8.4395 C 189.721 8.4395 188.7357 8.0194 188.0229 7.3405 C 187.3091 6.6616 186.8678 5.7239 186.8678 4.6887 C 186.8678 3.6535 187.3091 2.7158 188.0229 2.0369 C 188.7357 1.358 189.721 0.938 190.808 0.938 Z " stroke-width="0.9780598308546722"/>
      <path id="ID0.9072000649757683" fill="#36374B" stroke="none" stroke-linecap="round" d="M 190.7912 3.13 C 191.1766 3.13 191.5263 3.295 191.7795 3.5618 C 192.0327 3.8287 192.1893 4.1973 192.1893 4.6035 C 192.1893 5.0096 192.0327 5.3783 191.7795 5.6451 C 191.5263 5.9119 191.1766 6.077 190.7912 6.077 C 190.4058 6.077 190.056 5.9119 189.8028 5.6451 C 189.5496 5.3783 189.393 5.0096 189.393 4.6035 C 189.393 4.1973 189.5496 3.8287 189.8028 3.5618 C 190.056 3.295 190.4058 3.13 190.7912 3.13 Z " stroke-width="1.0445964538258823"/>
    </g>
    <path id="ID0.5092153903096914" fill="#020204" stroke="none" stroke-linecap="round" d="M 166.5021 0.7762 L 175.1452 0.7762 L 175.1452 11.2248 L 166.5021 11.2248 L 166.5021 0.7762 Z " stroke-width="1.0445964538258823"/>
    <path id="ID0.5092153903096914" fill="#020204" stroke="none" stroke-linecap="round" d="M 151.2021 0.7762 L 159.8452 0.7762 L 159.8452 11.2248 L 151.2021 11.2248 L 151.2021 0.7762 Z " stroke-width="1.0445964538258823"/>
    <path id="ID0.5092153903096914" fill="#020204" stroke="none" stroke-linecap="round" d="M 136.8521 0.7762 L 145.4952 0.7762 L 145.4952 11.2248 L 136.8521 11.2248 L 136.8521 0.7762 Z " stroke-width="1.0445964538258823"/>
    <path id="ID0.5092153903096914" fill="#020204" stroke="none" stroke-linecap="round" d="M 121.1021 0.7762 L 129.7452 0.7762 L 129.7452 11.2248 L 121.1021 11.2248 L 121.1021 0.7762 Z " stroke-width="1.0445964538258823"/>
    <path id="ID0.5092153903096914" fill="#020204" stroke="none" stroke-linecap="round" d="M 105.5521 0.6262 L 114.1952 0.6262 L 114.1952 11.0748 L 105.5521 11.0748 L 105.5521 0.6262 Z " stroke-width="1.0445964538258823"/>
    <g id="ID0.27441906183958054">
      <path id="ID0.8246211856603622" fill="#020204" stroke="none" stroke-linecap="round" d="M 91.0225 0.9374 C 92.8548 0.9514 95.0196 0.1905 96.6151 1.2053 C 97.5088 1.6811 96.8357 3.2115 96.6151 4.2863 C 96.2988 5.7866 95.9745 7.4562 94.9383 8.5472 C 93.9032 9.6392 92.4735 10.3143 90.8954 10.3143 C 89.3173 10.3143 87.8876 9.6392 86.8525 8.5472 C 85.8163 7.4562 85.3293 5.8284 85.1757 4.2863 C 85.0608 3.0603 84.8473 1.469 85.6841 0.9374 C 87.3284 0.0458 89.2481 0.9256 91.0225 0.9374 Z " stroke-width="1.0445964538258823"/>
      <path id="ID0.4703502100892365" fill="#858A8E" stroke="none" d="M 90.908 0.638 C 91.995 0.638 92.9803 1.058 93.6931 1.7369 C 94.4069 2.4158 94.8482 3.3535 94.8482 4.3887 C 94.8482 5.4239 94.4069 6.3616 93.6931 7.0405 C 92.9803 7.7194 91.995 8.1395 90.908 8.1395 C 89.821 8.1395 88.8357 7.7194 88.1229 7.0405 C 87.4091 6.3616 86.9678 5.4239 86.9678 4.3887 C 86.9678 3.3535 87.4091 2.4158 88.1229 1.7369 C 88.8357 1.058 89.821 0.638 90.908 0.638 Z " stroke-width="0.9780598308546722"/>
      <path id="ID0.9072000649757683" fill="#36374B" stroke="none" stroke-linecap="round" d="M 90.8912 2.78 C 91.2766 2.78 91.6263 2.945 91.8795 3.2118 C 92.1327 3.4787 92.2893 3.8473 92.2893 4.2535 C 92.2893 4.6596 92.1327 5.0283 91.8795 5.2951 C 91.6263 5.5619 91.2766 5.727 90.8912 5.727 C 90.5058 5.727 90.156 5.5619 89.9028 5.2951 C 89.6496 5.0283 89.493 4.6596 89.493 4.2535 C 89.493 3.8473 89.6496 3.4787 89.9028 3.2118 C 90.156 2.945 90.5058 2.78 90.8912 2.78 Z " stroke-width="1.0445964538258823"/>
    </g>
    <g id="ID0.27441906183958054">
      <path id="ID0.8246211856603622" fill="#020204" stroke="none" stroke-linecap="round" d="M 64.2225 0.9374 C 66.0548 0.9514 68.2196 0.1905 69.8151 1.2053 C 70.7088 1.6811 70.0357 3.2115 69.8151 4.2863 C 69.4988 5.7866 69.1745 7.4562 68.1383 8.5472 C 67.1032 9.6392 65.6735 10.3143 64.0954 10.3143 C 62.5173 10.3143 61.0876 9.6392 60.0525 8.5472 C 59.0163 7.4562 58.5293 5.8284 58.3757 4.2863 C 58.2608 3.0603 58.0473 1.469 58.8841 0.9374 C 60.5284 0.0458 62.4481 0.9256 64.2225 0.9374 Z " stroke-width="1.0445964538258823"/>
      <path id="ID0.4703502100892365" fill="#858A8E" stroke="none" d="M 64.108 0.638 C 65.195 0.638 66.1803 1.058 66.8931 1.7369 C 67.6069 2.4158 68.0482 3.3535 68.0482 4.3887 C 68.0482 5.4239 67.6069 6.3616 66.8931 7.0405 C 66.1803 7.7194 65.195 8.1395 64.108 8.1395 C 63.021 8.1395 62.0357 7.7194 61.3229 7.0405 C 60.6091 6.3616 60.1678 5.4239 60.1678 4.3887 C 60.1678 3.3535 60.6091 2.4158 61.3229 1.7369 C 62.0357 1.058 63.021 0.638 64.108 0.638 Z " stroke-width="0.9780598308546722"/>
      <path id="ID0.9072000649757683" fill="#36374B" stroke="none" stroke-linecap="round" d="M 64.0912 2.78 C 64.4766 2.78 64.8263 2.945 65.0795 3.2118 C 65.3327 3.4787 65.4893 3.8473 65.4893 4.2535 C 65.4893 4.6596 65.3327 5.0283 65.0795 5.2951 C 64.8263 5.5619 64.4766 5.727 64.0912 5.727 C 63.7058 5.727 63.356 5.5619 63.1028 5.2951 C 62.8496 5.0283 62.693 4.6596 62.693 4.2535 C 62.693 3.8473 62.8496 3.4787 63.1028 3.2118 C 63.356 2.945 63.7058 2.78 64.0912 2.78 Z " stroke-width="1.0445964538258823"/>
    </g>
    <path id="ID0.5092153903096914" fill="#020204" stroke="none" stroke-linecap="round" d="M 39.3021 0.6762 L 47.9452 0.6762 L 47.9452 11.1248 L 39.3021 11.1248 L 39.3021 0.6762 Z " stroke-width="1.0445964538258823"/>
    <path id="ID0.5092153903096914" fill="#020204" stroke="none" stroke-linecap="round" d="M 23.0521 0.6762 L 31.6952 0.6762 L 31.6952 11.1248 L 23.0521 11.1248 L 23.0521 0.6762 Z " stroke-width="1.0445964538258823"/>
    <path id="ID0.5092153903096914" fill="#020204" stroke="none" stroke-linecap="round" d="M 6.6021 0.6762 L 15.2452 0.6762 L 15.2452 11.1248 L 6.6021 11.1248 L 6.6021 0.6762 Z " stroke-width="1.0445964538258823"/>
    <path id="ID0.17294166656211019" fill="#4A4C59" stroke="none" stroke-linecap="round" d="M 2.0921 13.7501 L 259.3499 13.7501 L 259.3499 15.6255 L 2.0921 15.6255 L 2.0921 13.7501 Z " stroke-width="1.0445964538258823"/>
    <path id="ID0.17294166656211019" fill="#4A4C59" stroke="#000002" stroke-width="2.3537939709671365" stroke-linecap="round" d="M 2.6857 13.8906 L 258.7773 13.8906 L 258.7773 16.2027 L 2.6857 16.2027 L 2.6857 13.8906 Z "/>
  </g>
</svg>