<svg xmlns="http://www.w3.org/2000/svg" xmlns:xlink="http://www.w3.org/1999/xlink" version="1.1" width="13.144000053405762" height="13.144000053405762" viewBox="2.465399980545044 1.925800085067749 13.144000053405762 13.144000053405762">
  <defs>
    <linearGradient id="grad_1" y2="1" x2="0">
      <stop offset="0" stop-color="#FFFFFF" stop-opacity="1"/>
      <stop offset="1" stop-color="#FFE956" stop-opacity="1"/>
    </linearGradient>
    <linearGradient id="grad_2" y2="1" x2="0">
      <stop offset="0" stop-color="#FCDA48" stop-opacity="1"/>
      <stop offset="1" stop-color="#BEA639" stop-opacity="1"/>
    </linearGradient>
  <linearGradient id="grad_1-.2763006389141083,-0.25586998462677,0.25586998462677,0.2763006389141083,-101.7,20.45" y2="16.5221" x2="8.7325" x1="0.8517" y1="8.012" gradientUnits="userSpaceOnUse">
      <stop offset="0" stop-color="#FFFFFF" stop-opacity="1"/>
      <stop offset="1" stop-color="#FFE956" stop-opacity="1"/>
    </linearGradient></defs>
  <!-- Exported by Scratch - http://scratch.mit.edu/ -->
  <g id="ID0.5861716815270483">
    <path id="ID0.6859965012408793" fill="#A5601B" stroke="none" d="M 9.0374 2.4258 C 10.7126 2.4258 12.2308 3.1062 13.3299 4.2053 C 14.429 5.3044 15.1094 6.8226 15.1094 8.4978 C 15.1094 10.173 14.429 11.6912 13.3299 12.7903 C 12.2308 13.8894 10.7126 14.5698 9.0374 14.5698 C 7.3622 14.5698 5.844 13.8894 4.7449 12.7903 C 3.6458 11.6912 2.9654 10.173 2.9654 8.4978 C 2.9654 6.8226 3.6458 5.3044 4.7449 4.2053 C 5.844 3.1062 7.3622 2.4258 9.0374 2.4258 Z " stroke-width="0.34208574891090393"/>
    <path id="ID0.7324890927411616" fill="#FFF194" stroke="none" stroke-linecap="round" d="M 7.6088 2.6331 C 8.7414 2.614 9.9457 3.131 10.75 3.9355 C 11.5545 4.7398 12.0524 5.8508 12.0524 7.0768 C 12.0524 8.3027 11.5545 9.4137 10.75 10.218 C 9.9457 11.0225 8.8347 11.5204 7.6088 11.5204 C 6.3828 11.5204 5.2718 11.0225 4.4676 10.218 C 3.663 9.4137 3.1121 8.2083 3.1651 7.0768 C 3.2185 5.9347 3.9783 4.8602 4.7914 4.0597 C 5.5303 3.3082 6.5497 2.6511 7.6088 2.6331 Z " stroke-width="0.2853051722049713"/>
    <path id="ID0.41078828927129507" fill="url(#grad_1-.2763006389141083,-0.25586998462677,0.25586998462677,0.2763006389141083,-101.7,20.45)" stroke="none" d="M 5.1067 4.0716 C 6.2807 2.9844 7.7861 2.4762 9.2696 2.5329 C 10.753 2.5901 12.215 3.2123 13.3022 4.3863 C 14.3894 5.5603 14.8976 7.0657 14.8409 8.5491 C 14.7837 10.0325 14.1615 11.4945 12.9875 12.5817 C 11.8135 13.6689 10.3081 14.1771 8.8247 14.1204 C 7.3413 14.0632 5.8793 13.4411 4.7921 12.2671 C 3.7049 11.0931 3.1967 9.5877 3.2534 8.1042 C 3.3106 6.6208 3.9327 5.1588 5.1067 4.0716 Z " stroke-width="0.3765786665455811"/>
    <path id="ID0.31507888715714216" fill="#D8AB26" stroke="none" d="M 9.0142 4.1057 C 10.2091 4.1057 11.2917 4.5912 12.0758 5.3748 C 12.8594 6.1588 13.3448 7.2415 13.3448 8.4364 C 13.3448 9.6313 12.8594 10.7139 12.0758 11.498 C 11.2917 12.2816 10.2091 12.7671 9.0142 12.7671 C 7.8193 12.7671 6.7366 12.2816 5.9526 11.498 C 5.1689 10.7139 4.6835 9.6313 4.6835 8.4364 C 4.6835 7.2415 5.1689 6.1588 5.9526 5.3748 C 6.7366 4.5912 7.8193 4.1057 9.0142 4.1057 Z " stroke-width="0.3765786588191986"/>
    <path id="ID0.4775324873626232" fill="#E1C758" stroke="none" stroke-linecap="round" d="M 9.0759 4.1125 C 9.9939 4.0407 10.9736 4.4763 11.7329 5.0833 C 12.4319 5.6384 13.2201 6.4729 13.2347 7.4261 C 13.2475 8.2716 12.4469 8.9888 11.7907 9.4734 C 10.8553 10.1348 9.7552 10.6114 8.633 10.7397 C 7.4978 10.8693 6.2725 10.765 5.2443 10.1698 C 4.7549 9.8862 4.6325 9.058 4.7245 8.4392 C 4.8839 7.3729 5.259 6.2543 5.9999 5.5105 C 6.8178 4.6895 7.9699 4.1986 9.0759 4.1125 Z " stroke-width="0.4040230177593796"/>
    <path id="ID0.4775324873626232" fill="#F0D45E" stroke="none" stroke-linecap="round" d="M 8.9124 3.9444 C 9.7817 3.8824 10.7094 4.2587 11.4286 4.7831 C 12.0904 5.2626 12.8369 5.9835 12.8507 6.8069 C 12.8628 7.5374 12.1046 8.1569 11.4833 8.5756 C 10.5975 9.147 9.5557 9.5587 8.493 9.6695 C 7.418 9.7815 6.2577 9.6914 5.284 9.1772 C 4.8205 8.9322 4.7046 8.2167 4.7917 7.6821 C 4.9427 6.761 5.2979 5.7946 5.9995 5.1521 C 6.774 4.4428 7.8651 4.0187 8.9124 3.9444 Z " stroke-width="0.3646616041660309"/>
    <path id="ID0.4775324873626232" fill="#FFF087" stroke="none" stroke-linecap="round" d="M 8.9624 3.9444 C 9.8317 3.8824 10.7551 4.2766 11.4786 4.7831 C 11.879 5.0639 12.345 5.6831 12.0803 6.0776 C 11.6018 6.7913 10.6059 7.0075 9.8011 7.3357 C 9.1469 7.5837 8.4449 7.735 7.7408 7.7915 C 6.7777 7.8681 5.264 8.3367 4.8417 7.6821 C 4.43 7.0443 5.3479 5.7946 6.0495 5.1521 C 6.824 4.4428 7.9151 4.0187 8.9624 3.9444 Z " stroke-width="0.3646616041660309"/>
    <path id="ID0.421188042499125" fill="none" stroke="url(#grad_2)" stroke-width="0.8644291162490845" d="M 9.0773 3.7595 C 10.3592 3.7595 11.5206 4.2803 12.3617 5.1214 C 13.2028 5.9625 13.7236 7.1239 13.7236 8.4058 C 13.7236 9.6878 13.2028 10.8491 12.3617 11.6902 C 11.5206 12.5313 10.3592 13.0521 9.0773 13.0521 C 7.7953 13.0521 6.634 12.5313 5.7929 11.6902 C 4.9518 10.8491 4.431 9.6878 4.431 8.4058 C 4.431 7.1239 4.9518 5.9625 5.7929 5.1214 C 6.634 4.2803 7.7953 3.7595 9.0773 3.7595 Z "/>
    <path id="ID0.8558867205865681" fill="#A5601B" stroke="none" d="M 14.8939 7.2864 C 14.9044 7.2864 14.9138 7.2864 14.9206 7.2864 C 14.9274 7.2864 14.9315 7.2864 14.9315 7.2864 C 14.9315 7.2864 14.9274 7.2864 14.9206 7.2864 C 14.9138 7.2864 14.9044 7.2864 14.8939 7.2864 C 14.8833 7.2864 14.8739 7.2864 14.8671 7.2864 C 14.8603 7.2864 14.8562 7.2864 14.8562 7.2864 C 14.8562 7.2864 14.8603 7.2864 14.8671 7.2864 C 14.8739 7.2864 14.8833 7.2864 14.8939 7.2864 Z " stroke-width="0.3765786588191986"/>
    <g id="ID0.31263339798897505">
      <text id="ID0.5904969456605613" fill="#A5601B" text-anchor="start" font-family="Serif" font-size="22" transform="matrix(0.370078 0 0 0.428067 7.24016 -0.212269)" stroke-width="1" alignment-baseline="text-before-edge" xml:space="preserve"><tspan x="0" style="white-space: pre" dy="1.25em">1</tspan></text>
      <text id="ID0.5904969456605613" fill="#FFFF99" text-anchor="start" font-family="Serif" font-size="22" transform="matrix(0.370078 0 0 0.428067 6.94016 -0.312269)" stroke-width="1" alignment-baseline="text-before-edge" xml:space="preserve"><tspan x="0" style="white-space: pre" dy="1.25em">1</tspan></text>
    </g>
  </g>
</svg>