<svg xmlns="http://www.w3.org/2000/svg" xmlns:xlink="http://www.w3.org/1999/xlink" version="1.1" width="14.771997466153945" height="15.159000411100234" viewBox="0.46400117155559584 0.5454988407755665 14.771997466153945 15.159000411100234">
  <!-- Exported by Scratch - http://scratch.mit.edu/ -->
  <path id="ID0.0996443317271769" fill="#FFFF97" stroke="none" stroke-linecap="round" d="M 6.2708 6.5152 L 7.8729 2.1441 L 9.4179 6.7753 L 13.3089 8.1283 L 9.6468 9.5333 L 8.159 14.2165 L 6.1563 9.7934 L 2.8375 8.1803 L 6.2708 6.5152 Z " stroke-width="1.0937976980875388"/>
  <path id="ID0.8717015604488552" fill="none" stroke="#F0D25A" stroke-width="0.6450892686843872" stroke-linecap="round" d="M 1.1109 8.1084 C 1.1109 8.1084 4.8663 8.4435 6.0871 9.6799 C 7.3889 10.9994 7.8682 15.1076 7.8682 15.1076 "/>
  <path id="ID0.8717015604488552" fill="none" stroke="#F0D25A" stroke-width="0.6450892686843872" stroke-linecap="round" d="M 14.6891 8.1584 C 14.6891 8.1584 10.9337 8.4935 9.7129 9.7299 C 8.4111 11.0494 7.9318 15.1576 7.9318 15.1576 "/>
  <path id="ID0.8717015604488552" fill="none" stroke="#F0D25A" stroke-width="0.6450892686843872" stroke-linecap="round" d="M 14.6891 8.2416 C 14.6891 8.2416 10.9337 7.9065 9.7129 6.6701 C 8.4111 5.3506 7.9318 1.2424 7.9318 1.2424 "/>
  <path id="ID0.8717015604488552" fill="none" stroke="#F0D25A" stroke-width="0.6450892686843872" stroke-linecap="round" d="M 1.0109 8.0916 C 1.0109 8.0916 4.7663 7.7565 5.9871 6.5201 C 7.2889 5.2006 7.7682 1.0924 7.7682 1.0924 "/>
</svg>