<svg xmlns="http://www.w3.org/2000/svg" xmlns:xlink="http://www.w3.org/1999/xlink" version="1.1" width="46.31369636781456" height="27.99647186525108" viewBox="0.5909869753944781 0.09961462851642633 46.31369636781456 27.99647186525108">
  <defs>
    <linearGradient id="grad_1" y2="1" x2="0">
      <stop offset="0" stop-color="#B4051A" stop-opacity="1"/>
      <stop offset="1" stop-color="#900314" stop-opacity="1"/>
    </linearGradient>
    <linearGradient id="grad_2" y2="1" x2="0">
      <stop offset="0" stop-color="#B4051A" stop-opacity="1"/>
      <stop offset="1" stop-color="#900314" stop-opacity="1"/>
    </linearGradient>
    <linearGradient id="grad_3" y2="1" x2="0">
      <stop offset="0" stop-color="#B4051A" stop-opacity="1"/>
      <stop offset="1" stop-color="#900314" stop-opacity="1"/>
    </linearGradient>
    <linearGradient id="grad_4" y2="1" x2="0">
      <stop offset="0" stop-color="#B4051A" stop-opacity="1"/>
      <stop offset="1" stop-color="#900314" stop-opacity="1"/>
    </linearGradient>
    <linearGradient id="grad_5" y2="1" x2="0">
      <stop offset="0" stop-color="#7F7F7F" stop-opacity="1"/>
      <stop offset="1" stop-color="#B2B2B2" stop-opacity="1"/>
    </linearGradient>
    <linearGradient id="grad_6" y2="1" x2="0">
      <stop offset="0" stop-color="#666666" stop-opacity="1"/>
      <stop offset="1" stop-color="#7F7F7F" stop-opacity="1"/>
    </linearGradient>
    <linearGradient id="grad_7" y2="1" x2="0">
      <stop offset="0" stop-color="#B4051A" stop-opacity="1"/>
      <stop offset="1" stop-color="#900314" stop-opacity="1"/>
    </linearGradient>
    <linearGradient id="grad_8" y2="1" x2="0">
      <stop offset="0" stop-color="#B4051A" stop-opacity="1"/>
      <stop offset="1" stop-color="#900314" stop-opacity="1"/>
    </linearGradient>
  <linearGradient id="grad_1-.6220238208770752,0,0,0.8530611991882324,-135.1,-143.5" y2="8.7288" x2="13.4704" x1="13.4704" y1="5.3165" gradientUnits="userSpaceOnUse">
      <stop offset="0" stop-color="#B4051A" stop-opacity="1"/>
      <stop offset="1" stop-color="#900314" stop-opacity="1"/>
    </linearGradient><linearGradient id="grad_3-.6220238208770752,0,0,-0.8530611991882324,-135.3,171.5" y2="19.2712" x2="13.2704" x1="13.2704" y1="22.6835" gradientUnits="userSpaceOnUse">
      <stop offset="0" stop-color="#B4051A" stop-opacity="1"/>
      <stop offset="1" stop-color="#900314" stop-opacity="1"/>
    </linearGradient><linearGradient id="grad_5-.0231788158416748,0,0,1.2957746982574463,-231.4,-225.3" y2="11.762" x2="8.8424" x1="8.8424" y1="7.2268" gradientUnits="userSpaceOnUse">
      <stop offset="0" stop-color="#7F7F7F" stop-opacity="1"/>
      <stop offset="1" stop-color="#B2B2B2" stop-opacity="1"/>
    </linearGradient><linearGradient id="grad_6-.0231788158416748,0,0,-1.9402984380722046,-231.4,369" y2="14.0224" x2="8.8936" x1="8.8936" y1="20.5224" gradientUnits="userSpaceOnUse">
      <stop offset="0" stop-color="#666666" stop-opacity="1"/>
      <stop offset="1" stop-color="#7F7F7F" stop-opacity="1"/>
    </linearGradient><linearGradient id="grad_7-.6220238208770752,0,0,0.8530611991882324,-135.85,-138.45" y2="13.7788" x2="12.7204" x1="12.7204" y1="10.3665" gradientUnits="userSpaceOnUse">
      <stop offset="0" stop-color="#B4051A" stop-opacity="1"/>
      <stop offset="1" stop-color="#900314" stop-opacity="1"/>
    </linearGradient></defs>
  <!-- Exported by Scratch - http://scratch.mit.edu/ -->
  <g id="ID0.35244233813136816">
    <path id="ID0.8808284332044423" fill="#EA5B2C" stroke="#EA5B2C" stroke-width="1.5943059921264648" stroke-linecap="round" d="M 25.1342 19.1598 L 25.3334 7.9199 L 28.9206 4.7712 L 29.1598 8.3584 L 38.327 2.3 L 35.1384 9.1555 L 44.7043 8.7569 L 37.1313 15.0943 L 43.668 19.6779 L 36.3342 19.7576 L 40.4794 25.8957 L 31.1925 20.6345 L 28.2431 24.1021 L 25.1342 19.1598 Z "/>
    <path id="ID0.8808284332044423" fill="#FFA838" stroke="#FFA838" stroke-width="1.0440587997436523" stroke-linecap="round" d="M 24.9914 17.5051 L 25.1219 10.1445 L 27.471 8.0824 L 27.6276 10.4316 L 33.631 6.4642 L 31.5429 10.9536 L 37.8072 10.6926 L 32.8479 14.8427 L 37.1286 17.8444 L 32.3259 17.8966 L 35.0405 21.9162 L 28.9588 18.4708 L 27.0273 20.7417 L 24.9914 17.5051 Z "/>
    <path id="ID0.8808284332044423" fill="#FFDCA2" stroke="#FFDCA2" stroke-width="0.6913362145423889" stroke-linecap="round" d="M 25.0781 15.9405 L 25.1645 11.0666 L 26.72 9.7012 L 26.8237 11.2567 L 30.7989 8.6296 L 29.4162 11.6024 L 33.5642 11.4296 L 30.2804 14.1776 L 33.1149 16.1652 L 29.9347 16.1998 L 31.7322 18.8614 L 27.7052 16.58 L 26.4262 18.0837 L 25.0781 15.9405 Z "/>
  </g>
  <path id="ID0.5327810607850552" fill="none" stroke="#CCCCCC" stroke-width="4.400770647599716" stroke-linecap="round" d="M 25.7 9.4206 L 25.7 18.3147 "/>
  <g id="ID0.5733322883024812">
    <path id="ID0.6602351502515376" fill="url(#grad_1-.6220238208770752,0,0,0.8530611991882324,-135.1,-143.5)" stroke="url(#grad_2)" stroke-width="1.493068681138936" stroke-linecap="round" d="M 23.3295 8.7288 L 13.4704 8.5155 L 17.1092 5.4018 L 23.2984 5.3165 L 23.3295 8.7288 Z "/>
    <path id="ID0.15143875824287534" fill="#D84545" stroke="none" d="M 19.775 4.5 C 20.775 4.5 21.681 4.595 22.338 4.749 C 22.994 4.903 23.4 5.115 23.4 5.35 C 23.4 5.585 22.994 5.797 22.338 5.951 C 21.681 6.105 20.775 6.2 19.775 6.2 C 18.775 6.2 17.869 6.105 17.212 5.951 C 16.556 5.797 16.15 5.585 16.15 5.35 C 16.15 5.115 16.556 4.903 17.212 4.749 C 17.869 4.595 18.775 4.5 19.775 4.5 Z " stroke-width="1"/>
  </g>
  <g id="ID0.5733322883024812">
    <path id="ID0.6602351502515376" fill="url(#grad_3-.6220238208770752,0,0,-0.8530611991882324,-135.3,171.5)" stroke="url(#grad_4)" stroke-width="1.493068681138936" stroke-linecap="round" d="M 23.1295 19.2712 L 13.2704 19.4845 L 16.9092 22.5982 L 23.0984 22.6835 L 23.1295 19.2712 Z "/>
    <path id="ID0.15143875824287534" fill="#D84545" stroke="none" d="M 19.625 23.5 C 20.625 23.5 21.531 23.405 22.188 23.251 C 22.844 23.097 23.25 22.885 23.25 22.65 C 23.25 22.415 22.844 22.203 22.188 22.049 C 21.531 21.895 20.625 21.8 19.625 21.8 C 18.625 21.8 17.719 21.895 17.062 22.049 C 16.406 22.203 16 22.415 16 22.65 C 16 22.885 16.406 23.097 17.062 23.251 C 17.719 23.405 18.625 23.5 19.625 23.5 Z " stroke-width="1"/>
  </g>
  <path id="ID0.5281549068167806" fill="#B2B2B2" stroke="none" stroke-linecap="round" d="M 25.1384 13.1 C 25.9712 13.03 26.895 12.814 27.5667 13.25 C 28.0007 13.53 27.6897 14.248 27.67 14.75 C 27.6897 15.217 27.948 15.864 27.5667 16.15 C 26.9095 16.636 25.933 16.645 25.1384 16.65 C 24.5618 16.654 23.9159 16.451 23.4943 16.13 C 23.0738 15.808 22.8134 15.365 22.8134 14.875 C 22.8134 14.385 23.0738 13.942 23.4943 13.62 C 23.9159 13.299 24.5649 13.148 25.1384 13.1 Z " stroke-width="1.0168033139319734"/>
  <g id="ID0.014464637730270624">
    <path id="ID0.8719925684854388" fill="#900415" stroke="none" d="M 6.2107 8.057 C 7.8019 7.1953 9.5977 7.0671 11.2141 7.5561 C 12.8302 8.0467 14.2654 9.154 15.1362 10.7618 C 16.0069 12.3697 16.15 14.1768 15.6777 15.7983 C 15.204 17.4193 14.1154 18.8532 12.5242 19.7149 C 10.933 20.5766 9.1373 20.7048 7.5208 20.2158 C 5.9048 19.7252 4.4695 18.6179 3.5987 17.0101 C 2.728 15.4022 2.5849 13.5951 3.0572 11.9736 C 3.5309 10.3526 4.6195 8.9187 6.2107 8.057 Z " stroke-width="1.0991147235650882"/>
    <path id="ID0.7973887519910932" fill="#B4051A" stroke="none" d="M 8.3239 7.527 C 10.0184 7.2437 11.6485 7.5513 12.9122 8.2776 C 14.1773 9.0048 15.0758 10.1494 15.3083 11.5399 C 15.5408 12.9303 15.0635 14.305 14.1038 15.4041 C 13.1451 16.502 11.7037 17.3232 10.0092 17.6065 C 8.3148 17.8899 6.6846 17.5822 5.421 16.8559 C 4.1558 16.1288 3.2574 14.9841 3.0249 13.5937 C 2.7924 12.2032 3.2696 10.8285 4.2294 9.7294 C 5.1881 8.6315 6.6294 7.8103 8.3239 7.527 Z " stroke-width="1.1941867426016164"/>
    <path id="ID0.3765376480296254" fill="#D84545" stroke="none" d="M 8.6989 7.2804 C 9.8695 7.1946 10.9528 7.4254 11.759 7.8682 C 12.5636 8.3099 13.0894 8.9638 13.1451 9.724 C 13.2008 10.4843 12.7759 11.2078 12.0443 11.7621 C 11.3112 12.3176 10.2732 12.7039 9.1025 12.7896 C 7.9319 12.8754 6.8486 12.6446 6.0424 12.2018 C 5.2379 11.7601 4.712 11.1062 4.6563 10.346 C 4.6006 9.5857 5.0256 8.8622 5.7571 8.3079 C 6.4902 7.7524 7.5283 7.3661 8.6989 7.2804 Z " stroke-width="1.3872643622502199"/>
  </g>
  <path id="ID0.44829587545245886" fill="none" stroke="#666666" stroke-width="1.9062100442245618" stroke-linecap="round" d="M 24.5 8.0606 L 24.5 19.4031 "/>
  <path id="ID0.4480394651181996" fill="#7F7F7F" stroke="none" d="M 8.95 7.25 L 24.6 7.25 L 24.6 20.55 L 8.95 20.55 L 8.95 7.25 Z " stroke-width="1"/>
  <path id="ID0.2773259417153895" fill="url(#grad_5-.0231788158416748,0,0,1.2957746982574463,-231.4,-225.3)" stroke="none" stroke-linecap="round" d="M 8.8935 11.762 L 8.8424 7.2916 L 24.7017 7.2268 L 24.497 11.6972 L 17.4371 11.5028 L 12.8328 10.7254 L 8.8935 11.762 Z " stroke-width="1.16746026866685"/>
  <path id="ID0.2773259417153895" fill="url(#grad_6-.0231788158416748,0,0,-1.9402984380722046,-231.4,369)" stroke="none" stroke-linecap="round" d="M 8.8935 14.0224 L 8.8935 20.5224 L 24.6505 20.4254 L 24.497 14.1194 L 17.4371 14.4105 L 13.0886 14.5075 L 8.8935 14.0224 Z " stroke-width="1.5510726801108659"/>
  <g id="ID0.5733322883024812">
    <path id="ID0.6602351502515376" fill="url(#grad_7-.6220238208770752,0,0,0.8530611991882324,-135.85,-138.45)" stroke="url(#grad_8)" stroke-width="1.493068681138936" stroke-linecap="round" d="M 22.5795 13.7788 L 12.7204 13.5655 L 16.3592 10.4518 L 22.5484 10.3665 L 22.5795 13.7788 Z "/>
    <path id="ID0.15143875824287534" fill="#D84545" stroke="none" d="M 19.025 9.55 C 20.025 9.55 20.931 9.645 21.588 9.799 C 22.244 9.953 22.65 10.165 22.65 10.4 C 22.65 10.635 22.244 10.847 21.588 11.001 C 20.931 11.155 20.025 11.25 19.025 11.25 C 18.025 11.25 17.119 11.155 16.462 11.001 C 15.806 10.847 15.4 10.635 15.4 10.4 C 15.4 10.165 15.806 9.953 16.462 9.799 C 17.119 9.645 18.025 9.55 19.025 9.55 Z " stroke-width="1"/>
  </g>
</svg>