<svg xmlns="http://www.w3.org/2000/svg" xmlns:xlink="http://www.w3.org/1999/xlink" version="1.1" width="50.11939723408919" height="45.673794817097004" viewBox="8.367501700338217 3.713101828512044 50.11939723408919 45.673794817097004">
  <!-- Exported by Scratch - http://scratch.mit.edu/ -->
  <g id="ID0.5479611847549677">
    <path id="ID0.9244235134683549" fill="#FFFFCC" stroke="#FFFFCC" stroke-width="2" stroke-linecap="round" d="M 21.75 12.5 L 28.5 13.8 L 36.7 11.5 L 38.35 17.65 L 46 21.7 L 44.15 30.4 L 47.05 35.8 L 40.9 38.2 L 35.9 45.1 L 28.5 43.65 L 21.85 46.7 L 18.9 40.45 L 11.75 36.5 L 14.2 29.65 L 11.25 22.5 L 17.45 19.7 L 21.75 12.5 Z "/>
    <g id="ID0.7961737969890237">
      <g id="ID0.37940935883671045">
        <g id="ID0.7805350157432258">
          <path id="ID0.7298675808124244" fill="none" stroke="#FFFF99" stroke-width="2" stroke-linecap="round" d="M 10.192 36.889 C 10.192 36.889 15.192 38.119 17.243 40.257 C 19.466 42.593 20.95 45.859 20.901 48.139 "/>
          <path id="ID0.7298675808124244" fill="none" stroke="#FFFF99" stroke-width="1.999999944712932" stroke-linecap="round" d="M 9.4044 21.3823 C 9.4044 21.3823 12.4192 25.5565 12.5985 28.5138 C 12.7807 31.7333 11.7976 35.1833 10.2844 36.8894 "/>
        </g>
        <g id="ID0.7805350157432258">
          <path id="ID0.7298675808124244" fill="none" stroke="#FFFF99" stroke-width="1.9999999649923081" stroke-linecap="round" d="M 21.2701 10.3786 C 21.2701 10.3786 20.0823 15.3888 17.9617 17.4578 C 15.6445 19.7004 12.3911 21.2119 10.1108 21.1821 "/>
          <path id="ID0.7298675808124244" fill="none" stroke="#FFFF99" stroke-width="1.9999999743122634" stroke-linecap="round" d="M 36.769 9.45 C 36.769 9.45 32.6204 12.4999 29.6648 12.7041 C 26.4469 12.9134 22.9887 11.9595 21.2699 10.4607 "/>
        </g>
      </g>
      <g id="ID0.37940935883671045">
        <g id="ID0.7805350157432258">
          <path id="ID0.7298675808124244" fill="none" stroke="#FFFF99" stroke-width="2" stroke-linecap="round" d="M 47.808 20.911 C 47.808 20.911 42.808 19.681 40.757 17.543 C 38.534 15.207 37.05 11.941 37.099 9.661 "/>
          <path id="ID0.7298675808124244" fill="none" stroke="#FFFF99" stroke-width="1.999999944712932" stroke-linecap="round" d="M 48.5956 36.4177 C 48.5956 36.4177 45.5808 32.2435 45.4015 29.2862 C 45.2193 26.0667 46.2024 22.6167 47.7156 20.9106 "/>
        </g>
        <g id="ID0.7805350157432258">
          <path id="ID0.7298675808124244" fill="none" stroke="#FFFF99" stroke-width="1.9999999649923081" stroke-linecap="round" d="M 36.7799 47.4214 C 36.7799 47.4214 37.9677 42.4112 40.0883 40.3422 C 42.4055 38.0996 45.6589 36.5881 47.9392 36.6179 "/>
          <path id="ID0.7298675808124244" fill="none" stroke="#FFFF99" stroke-width="1.9999999743122634" stroke-linecap="round" d="M 21.281 48.35 C 21.281 48.35 25.4296 45.3001 28.3852 45.0959 C 31.6031 44.8866 35.0613 45.8405 36.7801 47.3393 "/>
        </g>
      </g>
    </g>
    <path id="ID0.07553771371021867" fill="#B4051A" stroke="none" d="M 29.074 34.8948 C 30.067 34.8948 30.9667 35.298 31.6188 35.95 C 32.2708 36.6021 32.674 37.5018 32.674 38.4948 C 32.674 39.4878 32.2708 40.3875 31.6188 41.0396 C 30.9667 41.6916 30.067 42.0948 29.074 42.0948 C 28.081 42.0948 27.1813 41.6916 26.5292 41.0396 C 25.8772 40.3875 25.474 39.4878 25.474 38.4948 C 25.474 37.5018 25.8772 36.6021 26.5292 35.95 C 27.1813 35.298 28.081 34.8948 29.074 34.8948 Z " stroke-width="1.1519999504089355"/>
    <path id="ID0.01284191757440567" fill="#B4051A" stroke="#B4051A" stroke-width="2.073796342975912" stroke-linecap="round" d="M 27.8913 31.9822 L 30.3973 32.0873 L 32.4942 16.6414 L 25.999 16.6414 L 27.8913 31.9822 Z "/>
    <path id="ID0.01284191757440567" fill="#FFD65C" stroke="#FFD65C" stroke-width="1.8487586682095114" stroke-linecap="round" d="M 28.1219 31.2542 L 30.2191 31.353 L 31.9738 16.8285 L 26.5384 16.8285 L 28.1219 31.2542 Z "/>
    <path id="ID0.07553771371021867" fill="#FFD65C" stroke="none" d="M 29.091 35.4932 C 29.9254 35.4932 30.6814 35.832 31.2293 36.3799 C 31.7772 36.9278 32.116 37.6838 32.116 38.5182 C 32.116 39.3526 31.7772 40.1086 31.2293 40.6565 C 30.6814 41.2044 29.9254 41.5432 29.091 41.5432 C 28.2566 41.5432 27.5006 41.2044 26.9527 40.6565 C 26.4048 40.1086 26.066 39.3526 26.066 38.5182 C 26.066 37.6838 26.4048 36.9278 26.9527 36.3799 C 27.5006 35.832 28.2566 35.4932 29.091 35.4932 Z " stroke-width="0.9679999947547913"/>
    <path id="ID0.7935045859776437" fill="#FFD65C" stroke="none" d="M 57.45 4.75 C 57.45 4.75 57.45 4.753 57.45 4.757 C 57.45 4.762 57.45 4.768 57.45 4.775 C 57.45 4.782 57.45 4.788 57.45 4.793 C 57.45 4.797 57.45 4.8 57.45 4.8 C 57.45 4.8 57.45 4.797 57.45 4.793 C 57.45 4.788 57.45 4.782 57.45 4.775 C 57.45 4.768 57.45 4.762 57.45 4.757 C 57.45 4.753 57.45 4.75 57.45 4.75 Z " stroke-width="1"/>
  </g>
</svg>