<svg xmlns="http://www.w3.org/2000/svg" xmlns:xlink="http://www.w3.org/1999/xlink" version="1.1" width="46.425376776238366" height="108.72173297741024" viewBox="0.3384630067248725 0.7038586718936347 46.425376776238366 108.72173297741024">
  <defs>
    <radialGradient id="grad_1" cx="0.5571" cy="0.6498999999999999" r="0.8448699999999999">
      <stop offset="0" stop-color="#FFEB61" stop-opacity="1"/>
      <stop offset="1" stop-color="#D5C451" stop-opacity="1"/>
    </radialGradient>
    <radialGradient id="grad_2" cx="0.5571" cy="0.6498999999999999" r="0.8448699999999999">
      <stop offset="0" stop-color="#FFEB61" stop-opacity="1"/>
      <stop offset="1" stop-color="#D5C451" stop-opacity="1"/>
    </radialGradient>
    <radialGradient id="grad_3" cx="0.5416" cy="0.45" r="0.715">
      <stop offset="0" stop-color="#FEFEFE" stop-opacity="1"/>
      <stop offset="1" stop-color="#FFEB61" stop-opacity="1"/>
    </radialGradient>
    <radialGradient id="grad_4" cx="0.6803" cy="0.25379999999999997" r="0.97006">
      <stop offset="0" stop-color="#E5E5E5" stop-opacity="1"/>
      <stop offset="1" stop-color="#CCCCCC" stop-opacity="1"/>
    </radialGradient>
    <radialGradient id="grad_5" cx="0.5571" cy="0.6498999999999999" r="0.8448699999999999">
      <stop offset="0" stop-color="#FFEB61" stop-opacity="1"/>
      <stop offset="1" stop-color="#D5C451" stop-opacity="1"/>
    </radialGradient>
    <radialGradient id="grad_6" cx="0.5571" cy="0.6498999999999999" r="0.8448699999999999">
      <stop offset="0" stop-color="#FFEB61" stop-opacity="1"/>
      <stop offset="1" stop-color="#D5C451" stop-opacity="1"/>
    </radialGradient>
    <radialGradient id="grad_7" cx="0.5571" cy="0.6498999999999999" r="0.8448699999999999">
      <stop offset="0" stop-color="#FFEB61" stop-opacity="1"/>
      <stop offset="1" stop-color="#D5C451" stop-opacity="1"/>
    </radialGradient>
    <radialGradient id="grad_8" cx="0.5416" cy="0.45" r="0.715">
      <stop offset="0" stop-color="#FEFEFE" stop-opacity="1"/>
      <stop offset="1" stop-color="#FFEB61" stop-opacity="1"/>
    </radialGradient>
    <radialGradient id="grad_9" cx="0.6803" cy="0.25379999999999997" r="0.97006">
      <stop offset="0" stop-color="#E5E5E5" stop-opacity="1"/>
      <stop offset="1" stop-color="#CCCCCC" stop-opacity="1"/>
    </radialGradient>
    <radialGradient id="grad_10" cx="0.5571" cy="0.6498999999999999" r="0.8448699999999999">
      <stop offset="0" stop-color="#FFEB61" stop-opacity="1"/>
      <stop offset="1" stop-color="#D5C451" stop-opacity="1"/>
    </radialGradient>
  <radialGradient id="grad_1-1,0,0,-1,271.40000000000003,200.7" cx="29.6027" cy="17.2344" r="3.2235" gradientUnits="userSpaceOnUse">
      <stop offset="0" stop-color="#FFEB61" stop-opacity="1"/>
      <stop offset="1" stop-color="#D5C451" stop-opacity="1"/>
    </radialGradient><radialGradient id="grad_2-,0,0,-1,-225.3,200.7" cx="16.4973" cy="17.2344" r="3.2235" gradientUnits="userSpaceOnUse">
      <stop offset="0" stop-color="#FFEB61" stop-opacity="1"/>
      <stop offset="1" stop-color="#D5C451" stop-opacity="1"/>
    </radialGradient><radialGradient id="grad_4-0.6911222338676453,2.1427356897925696e-18,2.8001662261453746e-18,-0.88030606508255,188.1,178.1" cx="19.9796" cy="18.9357" r="8.0397" gradientUnits="userSpaceOnUse">
      <stop offset="0" stop-color="#E5E5E5" stop-opacity="1"/>
      <stop offset="1" stop-color="#CCCCCC" stop-opacity="1"/>
    </radialGradient><radialGradient id="grad_5-,0,0,-1,-218.35,199.1" cx="23.4499" cy="15.7004" r="3.1753" gradientUnits="userSpaceOnUse">
      <stop offset="0" stop-color="#FFEB61" stop-opacity="1"/>
      <stop offset="1" stop-color="#D5C451" stop-opacity="1"/>
    </radialGradient><radialGradient id="grad_6-1,0,0,1,271.85,-93.1" cx="30.0527" cy="90.3656" r="3.2235" gradientUnits="userSpaceOnUse">
      <stop offset="0" stop-color="#FFEB61" stop-opacity="1"/>
      <stop offset="1" stop-color="#D5C451" stop-opacity="1"/>
    </radialGradient><radialGradient id="grad_7-,0,0,1,-224.85,-93.1" cx="16.9473" cy="90.3656" r="3.2235" gradientUnits="userSpaceOnUse">
      <stop offset="0" stop-color="#FFEB61" stop-opacity="1"/>
      <stop offset="1" stop-color="#D5C451" stop-opacity="1"/>
    </radialGradient><radialGradient id="grad_9-0.6911222338676453,-2.1427356897925696e-18,2.8001662261453746e-18,0.88030606508255,188.55,-70.55" cx="20.4296" cy="88.6143" r="8.0397" gradientUnits="userSpaceOnUse">
      <stop offset="0" stop-color="#E5E5E5" stop-opacity="1"/>
      <stop offset="1" stop-color="#CCCCCC" stop-opacity="1"/>
    </radialGradient><radialGradient id="grad_10-,0,0,1,-217.9,-91.55" cx="23.8999" cy="91.8496" r="3.1753" gradientUnits="userSpaceOnUse">
      <stop offset="0" stop-color="#FFEB61" stop-opacity="1"/>
      <stop offset="1" stop-color="#D5C451" stop-opacity="1"/>
    </radialGradient></defs>
  <!-- Exported by Scratch - http://scratch.mit.edu/ -->
  <path id="ID0.8408521916717291" fill="#FFFF8A" stroke="#F6C638" stroke-width="1.8533247742852403" stroke-linecap="round" d="M 34.6895 7.6873 C 35.2912 6.1155 37.8961 3.8894 37.383 3.4569 C 36.8689 3.0245 33.9764 4.9366 32.4525 5.8071 C 30.7488 6.7829 29.3171 8.8286 27.4308 8.9094 C 26.1525 8.9658 25.4449 7.1712 24.7829 6.0422 C 23.9548 4.633 24.0425 2.0759 23.0482 1.6708 C 22.3533 1.3004 21.9991 3.5829 21.4047 4.491 C 20.3145 6.1512 19.5987 8.5259 17.7525 9.4735 C 16.5308 10.0864 15.0782 8.8182 13.6438 8.4394 C 12.0606 8.0201 9.5177 6.1174 8.9416 6.9822 C 8.2851 7.8095 10.6828 10.0356 11.1786 11.8237 C 11.3767 12.5409 11.0845 13.2159 10.8134 14.0329 C 10.6454 14.5095 10.2162 14.7464 9.7634 15.114 C 8.8129 15.8698 7.6707 16.4714 6.7047 17.0881 C 6.1486 17.4407 4.6704 17.7612 5.1068 18.2632 C 6.5147 19.8839 9.1461 19.9629 10.5851 21.5535 C 11.9327 23.0435 13.306 25.1023 13.0047 27.1 C 12.7317 28.888 8.644 30.0002 9.4894 30.9543 C 10.5614 32.3034 15.6269 29.6138 16.8395 31.7064 C 18.0803 33.8526 15.8397 37.2144 14.1003 39.3211 C 12.9663 40.6945 9.5004 40.3636 9.1699 41.2012 C 8.9234 41.8725 12.0368 41.5331 13.1416 42.3763 C 14.3222 43.2769 16.2715 44.6241 15.8808 46.1367 C 15.1786 48.861 10.7723 50.9311 10.6764 52.8583 C 10.5212 53.8689 13.8428 51.5534 15.3786 52.0122 C 16.9298 52.4738 18.9358 53.5756 19.259 55.2555 C 19.5622 56.8912 18.3706 58.8165 17.0221 59.6269 C 15.5247 60.457 12.0295 58.5834 12.0003 59.4388 C 11.972 60.4165 16.1145 61.6452 17.159 63.6222 C 18.0091 65.2298 18.5158 67.8704 17.296 69.2627 C 15.9346 70.6559 13.0147 69.1452 11.4981 69.7328 C 11.0051 69.9255 12.6477 70.2423 13.096 70.6728 C 13.8072 71.3563 14.5267 72.1074 14.9221 73.023 C 15.1686 73.5956 15.133 74.3157 14.9221 74.9032 C 14.3551 76.4788 13.6657 78.0638 12.6394 79.3686 C 11.7246 80.5305 10.6563 81.6032 9.3981 82.3299 C 6.943 83.7419 1.6491 85.026 1.272 85.7142 C 1.0593 86.4014 5.8382 85.4143 7.846 85.9492 C 9.4611 86.3816 11.8195 86.8582 12.1829 88.5344 C 12.6148 90.5471 10.2482 92.2684 9.6264 94.2689 C 9.0694 96.0607 7.4114 99.5823 8.3481 99.8154 C 9.6839 100.1153 11.9419 95.8765 14.2373 95.35 C 15.637 95.0276 17.2238 96.3926 17.8895 97.7002 C 19.0381 99.9574 18.5542 102.7785 19.259 105.2209 C 19.6215 106.4759 20.1511 108.811 20.9938 108.4642 C 22.2054 108.1069 22.6473 105.4597 23.3677 103.8107 C 23.8736 102.6591 23.7083 101.1569 24.7373 100.2854 C 25.6832 99.4995 27.2016 99.7825 28.3895 100.0504 C 31.4911 101.7444 32.1658 102.4787 33.4112 103.3407 C 34.6393 104.2178 35.9157 105.5631 36.8351 105.6909 C 36.6215 103.7196 35.6336 102.2267 35.2373 100.5205 C 34.5753 96.5796 34.0677 95.5756 35.6938 94.4099 C 38.4174 92.463 45.4315 94.3526 45.8286 93.2348 C 46.1053 92.0738 39.609 91.0651 37.2917 89.0044 C 36.1458 87.9845 35.787 86.0911 35.9221 84.5391 C 36.0874 82.6636 36.8269 80.8521 37.8395 79.3686 C 38.8393 78.0779 42.5115 77.1415 41.7199 76.5484 C 40.3257 75.5077 36.2462 77.2252 33.7308 76.0783 C 32.2288 75.3883 32.4434 72.9629 31.3569 71.6129 C 30.4703 70.4933 28.5209 69.996 28.3438 68.5576 C 28.1521 66.9999 29.4157 65.3604 30.4438 64.0923 C 30.9451 63.4793 31.8408 63.4004 32.5438 63.0582 C 33.5473 62.7103 36.1065 62.7122 35.5569 62.0241 C 34.2339 60.3724 30.3726 60.3338 28.5721 58.3578 C 27.6691 57.2823 27.4545 55.0562 28.4351 53.9864 C 29.9599 52.3252 34.0604 53.2625 34.7808 51.8712 C 35.2747 50.9095 32.2717 50.2918 31.1286 49.286 C 30.148 48.4248 28.216 47.7818 28.3895 46.4657 C 28.6415 44.563 30.5744 43.1472 32.1786 42.0473 C 33.4441 41.1712 36.815 41.7738 36.6525 40.7782 C 36.4352 39.4536 32.762 38.9761 31.3112 37.4409 C 30.2923 36.3579 29.2833 34.7194 29.7134 33.3045 C 30.1407 31.9029 32.0316 31.4112 33.4112 30.8603 C 34.3471 30.4768 36.1504 31.2834 36.4699 30.5783 C 36.7749 29.9024 34.8967 29.1268 34.5525 28.1341 C 33.9307 26.3414 32.8734 24.2252 33.6395 22.4936 C 34.4137 20.9622 36.2946 21.0101 37.7025 20.4724 C 39.6427 19.7307 43.9121 19.6527 43.7286 18.8743 C 43.5004 17.9962 38.7352 17.9925 36.7438 16.6181 C 35.3578 15.662 34.6018 13.8279 34.233 12.1527 C 33.917 10.7181 34.2129 9.0899 34.6895 7.6873 Z "/>
  <path id="ID0.3830706034786999" fill="#FFFFFF" stroke="#FFFFFF" stroke-width="1" stroke-linecap="round" d="M 17.2 24.3 C 15.993 22.012 13.15 20.787 12.45 18.45 C 11.901 16.25 12.375 13.448 13.8 11.95 C 14.954 10.742 17.215 12.075 18.8 11.55 C 20.335 11.04 21.233 9.16 22.8 9.05 C 24.321 8.944 25.505 10.737 27.1 10.95 C 28.589 11.17 30.532 9.288 31.7 10.3 C 33.225 11.624 32.855 14.114 33.3 16.05 C 33.546 17.118 34.453 18.356 33.95 19.3 C 32.271 21.993 28.632 23.235 27.3 26.05 C 25.847 29.124 25.827 32.751 25.8 36.15 C 25.786 37.898 27.36 39.406 27.45 41.15 C 27.412 43.014 25.993 44.721 25.95 46.55 C 25.914 48.166 27.086 49.709 26.95 51.3 C 26.865 54.293 25.335 57.11 25.3 60.05 C 25.288 61.075 26.85 61.626 26.95 62.65 C 27.208 65.273 26.101 67.927 26.45 70.55 C 26.797 73.155 27.719 75.787 29.2 77.95 C 30.093 79.462 32.524 79.592 33.3 81.15 C 33.905 82.368 32.245 83.766 32.45 85.15 C 32.558 86.939 34.383 88.451 34.2 90.3 C 34.003 92.274 32.684 94.238 31.2 95.45 C 30.157 96.302 28.441 95.587 27.2 96.05 C 25.37 96.667 23.908 99.109 22.1 98.65 C 19.95 98.104 19.247 95.238 17.7 93.65 C 17.104 93.041 16.125 92.862 15.8 92.15 C 14.778 89.754 13.259 87.171 13.8 84.65 C 14.605 80.904 18.53 78.371 19.3 74.65 C 20.837 67.221 20.876 59.416 20.6 51.8 C 20.531 49.896 18.683 48.648 18.45 46.8 C 18.165 45.071 19.135 43.369 19.1 41.45 C 19.015 37.006 18.423 32.714 17.95 28.15 C 17.814 26.847 17.811 25.453 17.2 24.3 Z "/>
  <g id="ID0.10799971781671047">
    <path id="ID0.47299289889633656" fill="url(#grad_1-1,0,0,-1,271.40000000000003,200.7)" stroke="none" stroke-linecap="round" d="M 29.45 19.9 C 29.112 19.902 28.793 19.614 28.563 19.314 C 28.263 18.918 28.05 18.452 28.05 17.9 C 28.05 17.348 28.297 16.908 28.563 16.486 C 28.755 16.187 28.929 15.818 29.25 15.8 C 29.742 15.774 30.176 16.074 30.5 16.4 C 30.97 16.799 31.47 17.297 31.55 17.9 C 31.613 18.38 31.152 18.812 30.8 19.15 C 30.459 19.488 29.971 19.84 29.45 19.9 Z " stroke-width="1"/>
    <path id="ID0.47299289889633656" fill="url(#grad_2-,0,0,-1,-225.3,200.7)" stroke="none" stroke-linecap="round" d="M 16.65 19.9 C 16.988 19.902 17.307 19.614 17.537 19.314 C 17.837 18.918 18.05 18.452 18.05 17.9 C 18.05 17.348 17.803 16.908 17.537 16.486 C 17.345 16.187 17.171 15.818 16.85 15.8 C 16.358 15.774 15.924 16.074 15.6 16.4 C 15.13 16.799 14.63 17.297 14.55 17.9 C 14.487 18.38 14.948 18.812 15.3 19.15 C 15.641 19.488 16.129 19.84 16.65 19.9 Z " stroke-width="1"/>
    <path id="ID0.8711454072035849" fill="#FFEB61" stroke="#E7D457" stroke-width="0.9858663445703953" stroke-linecap="round" d="M 23.0216 25.3653 C 24.7747 25.3653 26.3638 24.8366 27.5147 23.9808 C 28.6646 23.126 29.3771 21.9462 29.3771 20.643 C 29.3771 19.3397 28.6646 18.1599 27.5147 17.3051 C 26.3638 16.4493 24.7747 15.9206 23.0216 15.9206 C 21.2685 15.9206 19.6794 16.4493 18.5286 17.3051 C 17.3787 18.1599 16.6661 19.3397 16.6661 20.643 C 16.6661 21.9462 17.3787 23.126 18.5286 23.9808 C 19.6794 24.8366 21.2685 25.3653 23.0216 25.3653 Z "/>
    <path id="ID0.69021091517061" fill="#FFFFFF" stroke="url(#grad_3)" stroke-width="1.6521392390690874" d="M 24.3143 23.5071 C 24.5212 23.7151 24.9043 23.6422 25.357 23.3558 C 25.8076 23.0701 26.3288 22.5718 26.8111 21.9282 C 27.2935 21.2846 27.6461 20.6168 27.827 20.06 C 28.0081 19.5006 28.0165 19.0511 27.8095 18.8431 C 27.6026 18.635 27.2195 18.7079 26.7668 18.9943 C 26.3162 19.28 25.795 19.7783 25.3127 20.422 C 24.8303 21.0656 24.4777 21.7333 24.2968 22.2902 C 24.1157 22.8496 24.1073 23.299 24.3143 23.5071 Z "/>
    <path id="ID0.69021091517061" fill="#FFFFFF" stroke="#F1D6AB" stroke-width="0.8432454819201701" d="M 20.1995 22.0833 C 20.2645 22.0581 20.2996 21.9533 20.3038 21.804 C 20.3079 21.6553 20.2814 21.462 20.2229 21.26 C 20.1645 21.058 20.0851 20.8852 20.0045 20.7694 C 19.9234 20.6532 19.8409 20.594 19.7759 20.6192 C 19.711 20.6445 19.6759 20.7493 19.6717 20.8985 C 19.6676 21.0472 19.6941 21.2405 19.7526 21.4425 C 19.811 21.6446 19.8904 21.8173 19.971 21.9332 C 20.0521 22.0494 20.1346 22.1085 20.1995 22.0833 Z "/>
    <path id="ID0.69021091517061" fill="#FFFFFF" stroke="#F3DF5C" stroke-width="1.4798398243631934" stroke-linecap="round" d="M 22.6841 21.6039 C 22.8068 21.5807 22.9935 21.6889 23.0626 21.5173 C 23.1935 21.1339 23.2273 20.6376 23.2328 20.1742 C 23.2077 19.8737 23.0983 19.5645 23.0038 19.3118 C 22.9289 19.1068 22.8199 18.9159 22.7006 18.9149 C 22.5812 18.9139 22.4704 19.104 22.3925 19.3068 C 22.3015 19.54 22.2182 19.8154 22.1805 20.0759 C 22.1519 20.5911 22.0577 21.1676 22.1981 21.5999 C 22.2702 21.8299 22.523 21.6348 22.6841 21.6039 Z "/>
    <path id="ID0.6058828267268836" fill="#B2B2B2" stroke="#939393" stroke-width="0.9036240038786731" stroke-linecap="round" d="M 29.6049 15.6504 L 29.3771 21.6536 C 29.3243 22.2208 28.8304 21.2056 27.7826 20.8472 C 26.5069 20.3992 24.9123 20.1304 23.1355 20.1304 C 21.3132 20.1304 19.8926 20.4386 18.4429 20.8472 C 17.6602 21.0864 16.8575 22.4044 16.6661 21.788 L 16.9395 16.0984 C 17.0306 14.1729 18.5022 13.5699 19.673 12.7832 C 20.7182 12.0816 22.0421 11.7528 23.3178 11.708 C 24.639 11.708 26.0969 12.0216 27.327 12.6936 C 28.2837 13.276 29.3835 15.1092 29.5594 15.3368 L 29.6049 15.6504 Z "/>
    <path id="ID0.9674056498333812" fill="#CCCCCC" stroke="#CCCCCC" stroke-width="0.7384171619886385" stroke-linecap="round" d="M 24.7115 19.0529 C 24.6969 18.8339 24.9095 18.3869 24.9654 17.9748 C 25.006 17.6745 25.0181 17.3669 25.0288 17.0625 C 25.039 16.7863 25.0587 16.5069 25.0288 16.2332 C 24.9946 15.9213 24.8994 15.6253 24.8385 15.3209 C 24.7832 15.0456 24.7376 14.7661 24.6798 14.4916 C 24.6214 14.2138 24.5224 13.9475 24.4894 13.6623 C 24.4583 13.3894 24.332 13.0179 24.4894 12.8329 C 24.6474 12.6472 24.9171 12.8553 25.124 12.9159 C 25.3423 12.9797 25.5626 13.0643 25.7586 13.2061 C 25.9693 13.3587 26.1515 13.5752 26.3298 13.7867 C 26.4904 13.9766 26.656 14.1706 26.774 14.4087 C 26.8921 14.6475 26.9752 14.9203 27.0279 15.1965 C 27.0818 15.4793 27.0806 15.7762 27.0913 16.0673 C 27.1015 16.3435 27.1224 16.6238 27.0913 16.8966 C 27.0583 17.1819 26.9644 17.4498 26.901 17.726 C 26.8375 18.0021 26.7962 18.2899 26.7106 18.5553 C 26.6262 18.8174 26.5716 19.1383 26.3933 19.3017 C 26.2181 19.4617 25.9725 19.4194 25.7586 19.4261 C 25.5461 19.4327 25.3341 19.3863 25.124 19.3431 C 24.9952 19.3166 24.7604 19.3639 24.7433 19.2187 Z "/>
    <path id="ID0.9674056498333812" fill="#E5E5E5" stroke="#E5E5E5" stroke-width="0.6933835235624416" stroke-linecap="round" d="M 26.976 19.411 C 26.8042 19.2021 26.9062 18.7673 26.8923 18.4431 C 26.865 17.8374 26.9509 17.2881 26.9202 16.7493 C 26.8109 15.6153 26.4121 14.5127 26.474 13.4424 C 26.4902 13.169 26.8499 13.4642 27.0317 13.5231 C 27.2236 13.5852 27.4171 13.6675 27.5894 13.8054 C 27.7746 13.9538 27.9346 14.1643 28.0913 14.37 C 28.2324 14.5547 28.378 14.7434 28.4817 14.9749 C 28.5855 15.2072 28.6658 15.4693 28.7048 15.7411 C 28.7466 17.5002 28.7288 18.21 28.7327 19.1287 C 28.7327 19.5045 28.9217 20.1264 28.7327 20.2579 C 28.5107 20.4103 28.1867 19.8352 27.8683 19.6933 C 27.5956 19.5497 27.2225 19.7078 26.976 19.411 Z "/>
    <path id="ID0.9674056498333812" fill="url(#grad_4-0.6911222338676453,2.1427356897925696e-18,2.8001662261453746e-18,-0.88030606508255,188.1,178.1)" stroke="#CCCCCC" stroke-linecap="round" d="M 18.8442 20.2611 C 20.988 19.909 23.2273 19.8844 25.4098 19.4688 C 25.9392 19.3993 25.4313 19.2074 24.9952 19.1607 C 23.2515 18.9732 21.1622 20.1537 19.7426 18.9407 C 18.9119 18.2303 20.0232 16.3799 20.1919 15.1553 C 20.2727 14.5717 20.6908 13.7337 20.3992 13.3947 C 20.1034 13.0514 19.4012 13.4423 19.0169 13.7909 C 18.4316 14.3226 17.8462 15.0286 17.6347 15.9036 C 17.3569 17.0524 17.5815 18.3112 17.4965 19.5129 C 17.5124 19.9548 17.1475 20.7083 17.4274 20.8333 C 17.8552 21.0182 18.3079 20.3492 18.8442 20.2611 Z " stroke-width="0.791387613741625"/>
    <path id="ID0.47299289889633656" fill="url(#grad_5-,0,0,-1,-218.35,199.1)" stroke="none" d="M 23.25 18.3 C 23.733 18.3 24.17 18.076 24.487 17.714 C 24.804 17.352 25 16.852 25 16.3 C 25 15.748 24.804 15.248 24.487 14.886 C 24.17 14.524 23.733 14.3 23.25 14.3 C 22.767 14.3 22.33 14.524 22.013 14.886 C 21.696 15.248 21.5 15.748 21.5 16.3 C 21.5 16.852 21.696 17.352 22.013 17.714 C 22.33 18.076 22.767 18.3 23.25 18.3 Z " stroke-width="1"/>
  </g>
  <g id="ID0.10799971781671047">
    <path id="ID0.47299289889633656" fill="url(#grad_6-1,0,0,1,271.85,-93.1)" stroke="none" stroke-linecap="round" d="M 29.9 87.7 C 29.562 87.698 29.243 87.986 29.013 88.286 C 28.713 88.682 28.5 89.148 28.5 89.7 C 28.5 90.252 28.747 90.692 29.013 91.114 C 29.205 91.413 29.379 91.782 29.7 91.8 C 30.192 91.826 30.626 91.526 30.95 91.2 C 31.42 90.801 31.92 90.303 32 89.7 C 32.063 89.22 31.602 88.788 31.25 88.45 C 30.909 88.112 30.421 87.76 29.9 87.7 Z " stroke-width="1"/>
    <path id="ID0.47299289889633656" fill="url(#grad_7-,0,0,1,-224.85,-93.1)" stroke="none" stroke-linecap="round" d="M 17.1 87.7 C 17.438 87.698 17.757 87.986 17.987 88.286 C 18.287 88.682 18.5 89.148 18.5 89.7 C 18.5 90.252 18.253 90.692 17.987 91.114 C 17.795 91.413 17.621 91.782 17.3 91.8 C 16.808 91.826 16.374 91.526 16.05 91.2 C 15.58 90.801 15.08 90.303 15 89.7 C 14.937 89.22 15.398 88.788 15.75 88.45 C 16.091 88.112 16.579 87.76 17.1 87.7 Z " stroke-width="1"/>
    <path id="ID0.8711454072035849" fill="#FFEB61" stroke="#E7D457" stroke-width="0.9858663445703953" stroke-linecap="round" d="M 23.5216 82.1847 C 25.2747 82.1847 26.8638 82.7134 28.0147 83.5692 C 29.1646 84.424 29.8771 85.6038 29.8771 86.907 C 29.8771 88.2103 29.1646 89.3901 28.0147 90.2449 C 26.8638 91.1007 25.2747 91.6294 23.5216 91.6294 C 21.7685 91.6294 20.1794 91.1007 19.0286 90.2449 C 17.8787 89.3901 17.1661 88.2103 17.1661 86.907 C 17.1661 85.6038 17.8787 84.424 19.0286 83.5692 C 20.1794 82.7134 21.7685 82.1847 23.5216 82.1847 Z "/>
    <path id="ID0.69021091517061" fill="#FFFFFF" stroke="url(#grad_8)" stroke-width="1.6521392390690874" d="M 24.7643 83.9429 C 24.9712 83.7349 25.3543 83.8078 25.807 84.0942 C 26.2576 84.3799 26.7788 84.8782 27.2611 85.5218 C 27.7435 86.1654 28.0961 86.8332 28.277 87.39 C 28.4581 87.9494 28.4665 88.3989 28.2595 88.6069 C 28.0526 88.815 27.6695 88.7421 27.2168 88.4557 C 26.7662 88.17 26.245 87.6717 25.7627 87.028 C 25.2803 86.3844 24.9277 85.7167 24.7468 85.1598 C 24.5657 84.6004 24.5573 84.151 24.7643 83.9429 Z "/>
    <path id="ID0.69021091517061" fill="#FFFFFF" stroke="#F1D6AB" stroke-width="0.8432454819201701" d="M 20.6495 85.4667 C 20.7145 85.4919 20.7496 85.5967 20.7538 85.746 C 20.7579 85.8947 20.7314 86.088 20.6729 86.29 C 20.6145 86.492 20.5351 86.6648 20.4545 86.7806 C 20.3734 86.8968 20.2909 86.956 20.2259 86.9308 C 20.161 86.9055 20.1259 86.8007 20.1217 86.6515 C 20.1176 86.5028 20.1441 86.3095 20.2026 86.1075 C 20.261 85.9054 20.3404 85.7327 20.421 85.6168 C 20.5021 85.5006 20.5846 85.4415 20.6495 85.4667 Z "/>
    <path id="ID0.69021091517061" fill="#FFFFFF" stroke="#F3DF5C" stroke-width="1.4798398243631934" stroke-linecap="round" d="M 23.1341 85.8961 C 23.2568 85.9193 23.4435 85.8111 23.5126 85.9827 C 23.6435 86.3661 23.6773 86.8624 23.6828 87.3258 C 23.6577 87.6263 23.5483 87.9355 23.4538 88.1882 C 23.3789 88.3932 23.2699 88.5841 23.1506 88.5851 C 23.0312 88.5861 22.9204 88.396 22.8425 88.1932 C 22.7515 87.96 22.6682 87.6846 22.6305 87.4241 C 22.6019 86.9089 22.5077 86.3324 22.6481 85.9001 C 22.7202 85.6701 22.973 85.8652 23.1341 85.8961 Z "/>
    <path id="ID0.6058828267268836" fill="#B2B2B2" stroke="#939393" stroke-width="0.9036240038786731" stroke-linecap="round" d="M 30.1049 91.9996 L 29.8771 85.9964 C 29.8243 85.4292 29.3304 86.4444 28.2826 86.8028 C 27.0069 87.2508 25.4123 87.5196 23.6355 87.5196 C 21.8132 87.5196 20.3926 87.2114 18.9429 86.8028 C 18.1602 86.5636 17.3575 85.2456 17.1661 85.862 L 17.4395 91.5516 C 17.5306 93.4771 19.0022 94.0801 20.173 94.8668 C 21.2182 95.5684 22.5421 95.8972 23.8178 95.942 C 25.139 95.942 26.5969 95.6284 27.827 94.9564 C 28.7837 94.374 29.8835 92.5408 30.0594 92.3132 L 30.1049 91.9996 Z "/>
    <path id="ID0.9674056498333812" fill="#CCCCCC" stroke="#CCCCCC" stroke-width="0.7384171619886385" stroke-linecap="round" d="M 25.2115 88.4971 C 25.1969 88.7161 25.4095 89.1631 25.4654 89.5752 C 25.506 89.8755 25.5181 90.1831 25.5288 90.4875 C 25.539 90.7637 25.5587 91.0431 25.5288 91.3168 C 25.4946 91.6287 25.3994 91.9247 25.3385 92.2291 C 25.2832 92.5044 25.2376 92.7839 25.1798 93.0584 C 25.1214 93.3362 25.0224 93.6025 24.9894 93.8877 C 24.9583 94.1606 24.832 94.5321 24.9894 94.7171 C 25.1474 94.9028 25.4171 94.6947 25.624 94.6341 C 25.8423 94.5703 26.0626 94.4857 26.2586 94.3439 C 26.4693 94.1913 26.6515 93.9748 26.8298 93.7633 C 26.9904 93.5734 27.156 93.3794 27.274 93.1413 C 27.3921 92.9025 27.4752 92.6297 27.5279 92.3535 C 27.5818 92.0707 27.5806 91.7738 27.5913 91.4827 C 27.6015 91.2065 27.6224 90.9262 27.5913 90.6534 C 27.5583 90.3681 27.4644 90.1002 27.401 89.824 C 27.3375 89.5479 27.2962 89.2601 27.2106 88.9947 C 27.1262 88.7326 27.0716 88.4117 26.8933 88.2483 C 26.7181 88.0883 26.4725 88.1306 26.2586 88.1239 C 26.0461 88.1173 25.8341 88.1637 25.624 88.2069 C 25.4952 88.2334 25.2604 88.1861 25.2433 88.3313 Z "/>
    <path id="ID0.9674056498333812" fill="#E5E5E5" stroke="#E5E5E5" stroke-width="0.6933835235624416" stroke-linecap="round" d="M 27.426 88.089 C 27.2542 88.2979 27.3562 88.7327 27.3423 89.0569 C 27.315 89.6626 27.4009 90.2119 27.3702 90.7507 C 27.2609 91.8847 26.8621 92.9873 26.924 94.0576 C 26.9402 94.331 27.2999 94.0358 27.4817 93.9769 C 27.6736 93.9148 27.8671 93.8325 28.0394 93.6946 C 28.2246 93.5462 28.3846 93.3357 28.5413 93.13 C 28.6824 92.9453 28.828 92.7566 28.9317 92.5251 C 29.0355 92.2928 29.1158 92.0307 29.1548 91.7589 C 29.1966 89.9998 29.1788 89.29 29.1827 88.3713 C 29.1827 87.9955 29.3717 87.3736 29.1827 87.2421 C 28.9607 87.0897 28.6367 87.6648 28.3183 87.8067 C 28.0456 87.9503 27.6725 87.7922 27.426 88.089 Z "/>
    <path id="ID0.9674056498333812" fill="url(#grad_9-0.6911222338676453,-2.1427356897925696e-18,2.8001662261453746e-18,0.88030606508255,188.55,-70.55)" stroke="#CCCCCC" stroke-linecap="round" d="M 19.2942 87.2889 C 21.438 87.641 23.6773 87.6656 25.8598 88.0812 C 26.3892 88.1507 25.8813 88.3426 25.4452 88.3893 C 23.7015 88.5768 21.6122 87.3963 20.1926 88.6093 C 19.3619 89.3197 20.4732 91.1701 20.6419 92.3947 C 20.7227 92.9783 21.1408 93.8163 20.8492 94.1553 C 20.5534 94.4986 19.8512 94.1077 19.4669 93.7591 C 18.8816 93.2274 18.2962 92.5214 18.0847 91.6464 C 17.8069 90.4976 18.0315 89.2388 17.9465 88.0371 C 17.9624 87.5952 17.5975 86.8417 17.8774 86.7167 C 18.3052 86.5318 18.7579 87.2008 19.2942 87.2889 Z " stroke-width="0.791387613741625"/>
    <path id="ID0.47299289889633656" fill="url(#grad_10-,0,0,1,-217.9,-91.55)" stroke="none" d="M 23.7 89.25 C 24.183 89.25 24.62 89.474 24.937 89.836 C 25.254 90.198 25.45 90.698 25.45 91.25 C 25.45 91.802 25.254 92.302 24.937 92.664 C 24.62 93.026 24.183 93.25 23.7 93.25 C 23.217 93.25 22.78 93.026 22.463 92.664 C 22.146 92.302 21.95 91.802 21.95 91.25 C 21.95 90.698 22.146 90.198 22.463 89.836 C 22.78 89.474 23.217 89.25 23.7 89.25 Z " stroke-width="1"/>
  </g>
</svg>