<svg xmlns="http://www.w3.org/2000/svg" xmlns:xlink="http://www.w3.org/1999/xlink" version="1.1" width="46.4253729615411" height="110.39084613658993" viewBox="0.03846299480394355 0.2552939040561103 46.4253729615411 110.39084613658993">
  <defs>
    <radialGradient id="grad_1" cx="0.5571" cy="0.6498999999999999" r="0.8448699999999999">
      <stop offset="0" stop-color="#FFEB61" stop-opacity="1"/>
      <stop offset="1" stop-color="#D5C451" stop-opacity="1"/>
    </radialGradient>
    <radialGradient id="grad_2" cx="0.5571" cy="0.6498999999999999" r="0.8448699999999999">
      <stop offset="0" stop-color="#FFEB61" stop-opacity="1"/>
      <stop offset="1" stop-color="#D5C451" stop-opacity="1"/>
    </radialGradient>
    <radialGradient id="grad_3" cx="0.5416" cy="0.45" r="0.715">
      <stop offset="0" stop-color="#FEFEFE" stop-opacity="1"/>
      <stop offset="1" stop-color="#FFEB61" stop-opacity="1"/>
    </radialGradient>
    <radialGradient id="grad_4" cx="0.6803" cy="0.25379999999999997" r="0.97006">
      <stop offset="0" stop-color="#E5E5E5" stop-opacity="1"/>
      <stop offset="1" stop-color="#CCCCCC" stop-opacity="1"/>
    </radialGradient>
    <radialGradient id="grad_5" cx="0.5571" cy="0.6498999999999999" r="0.8448699999999999">
      <stop offset="0" stop-color="#FFEB61" stop-opacity="1"/>
      <stop offset="1" stop-color="#D5C451" stop-opacity="1"/>
    </radialGradient>
    <radialGradient id="grad_6" cx="0.5571" cy="0.6498999999999999" r="0.8448699999999999">
      <stop offset="0" stop-color="#FFEB61" stop-opacity="1"/>
      <stop offset="1" stop-color="#D5C451" stop-opacity="1"/>
    </radialGradient>
    <radialGradient id="grad_7" cx="0.5571" cy="0.6498999999999999" r="0.8448699999999999">
      <stop offset="0" stop-color="#FFEB61" stop-opacity="1"/>
      <stop offset="1" stop-color="#D5C451" stop-opacity="1"/>
    </radialGradient>
    <radialGradient id="grad_8" cx="0.5416" cy="0.45" r="0.715">
      <stop offset="0" stop-color="#FEFEFE" stop-opacity="1"/>
      <stop offset="1" stop-color="#FFEB61" stop-opacity="1"/>
    </radialGradient>
    <radialGradient id="grad_9" cx="0.6803" cy="0.25379999999999997" r="0.97006">
      <stop offset="0" stop-color="#E5E5E5" stop-opacity="1"/>
      <stop offset="1" stop-color="#CCCCCC" stop-opacity="1"/>
    </radialGradient>
    <radialGradient id="grad_10" cx="0.5571" cy="0.6498999999999999" r="0.8448699999999999">
      <stop offset="0" stop-color="#FFEB61" stop-opacity="1"/>
      <stop offset="1" stop-color="#D5C451" stop-opacity="1"/>
    </radialGradient>
  <radialGradient id="grad_1-1,0,0,-1,271.55,206.79999999999998" cx="29.7527" cy="23.3344" r="3.2235" gradientUnits="userSpaceOnUse">
      <stop offset="0" stop-color="#FFEB61" stop-opacity="1"/>
      <stop offset="1" stop-color="#D5C451" stop-opacity="1"/>
    </radialGradient><radialGradient id="grad_2-,0,0,-1,-225.15,206.79999999999998" cx="16.6473" cy="23.3344" r="3.2235" gradientUnits="userSpaceOnUse">
      <stop offset="0" stop-color="#FFEB61" stop-opacity="1"/>
      <stop offset="1" stop-color="#D5C451" stop-opacity="1"/>
    </radialGradient><radialGradient id="grad_4-0.6911222338676453,2.1427356897925696e-18,2.8001662261453746e-18,-0.88030606508255,188.25,184.2" cx="20.1296" cy="25.0357" r="8.0397" gradientUnits="userSpaceOnUse">
      <stop offset="0" stop-color="#E5E5E5" stop-opacity="1"/>
      <stop offset="1" stop-color="#CCCCCC" stop-opacity="1"/>
    </radialGradient><radialGradient id="grad_5-,0,0,-1,-218.2,205.2" cx="23.5999" cy="21.8004" r="3.1753" gradientUnits="userSpaceOnUse">
      <stop offset="0" stop-color="#FFEB61" stop-opacity="1"/>
      <stop offset="1" stop-color="#D5C451" stop-opacity="1"/>
    </radialGradient><radialGradient id="grad_6-1,0,0,1,271.85,-87.1" cx="30.0527" cy="96.3656" r="3.2235" gradientUnits="userSpaceOnUse">
      <stop offset="0" stop-color="#FFEB61" stop-opacity="1"/>
      <stop offset="1" stop-color="#D5C451" stop-opacity="1"/>
    </radialGradient><radialGradient id="grad_7-,0,0,1,-224.85,-87.1" cx="16.9473" cy="96.3656" r="3.2235" gradientUnits="userSpaceOnUse">
      <stop offset="0" stop-color="#FFEB61" stop-opacity="1"/>
      <stop offset="1" stop-color="#D5C451" stop-opacity="1"/>
    </radialGradient><radialGradient id="grad_9-0.6911222338676453,-2.1427356897925696e-18,2.8001662261453746e-18,0.88030606508255,188.55,-64.5" cx="20.4296" cy="94.6643" r="8.0397" gradientUnits="userSpaceOnUse">
      <stop offset="0" stop-color="#E5E5E5" stop-opacity="1"/>
      <stop offset="1" stop-color="#CCCCCC" stop-opacity="1"/>
    </radialGradient><radialGradient id="grad_10-,0,0,1,-217.9,-85.5" cx="23.8999" cy="97.8996" r="3.1753" gradientUnits="userSpaceOnUse">
      <stop offset="0" stop-color="#FFEB61" stop-opacity="1"/>
      <stop offset="1" stop-color="#D5C451" stop-opacity="1"/>
    </radialGradient></defs>
  <!-- Exported by Scratch - http://scratch.mit.edu/ -->
  <path id="ID0.8408521916717291" fill="#FFFF8A" stroke="#F6C638" stroke-width="1.8533247742852403" stroke-linecap="round" d="M 34.3895 103.6627 C 34.9912 105.2345 37.5961 107.4606 37.083 107.8931 C 36.5689 108.3255 33.6764 106.4134 32.1525 105.5429 C 30.4488 104.5671 29.0171 102.5214 27.1308 102.4406 C 25.8525 102.3842 25.1449 104.1788 24.4829 105.3078 C 23.6548 106.717 23.7425 109.2741 22.7482 109.6792 C 22.0533 110.0496 21.6991 107.7671 21.1047 106.859 C 20.0145 105.1988 19.2987 102.8241 17.4525 101.8765 C 16.2308 101.2636 14.7782 102.5318 13.3438 102.9106 C 11.7606 103.3299 9.2177 105.2326 8.6416 104.3678 C 7.9851 103.5405 10.3828 101.3144 10.8786 99.5263 C 11.0767 98.8091 10.7845 98.1341 10.5134 97.3171 C 10.3454 96.8405 9.9162 96.6036 9.4634 96.236 C 8.5129 95.4802 7.3707 94.8786 6.4047 94.2619 C 5.8486 93.9093 4.3704 93.5888 4.8068 93.0868 C 6.2147 91.4661 8.8461 91.3871 10.2851 89.7965 C 11.6327 88.3065 13.006 86.2477 12.7047 84.25 C 12.4317 82.462 8.344 81.3498 9.1894 80.3957 C 10.2614 79.0466 15.3269 81.7362 16.5395 79.6436 C 17.7803 77.4974 15.5397 74.1356 13.8003 72.0289 C 12.6663 70.6555 9.2004 70.9864 8.8699 70.1488 C 8.6234 69.4775 11.7368 69.8169 12.8416 68.9737 C 14.0222 68.0731 15.9715 66.7259 15.5808 65.2133 C 14.8786 62.489 10.4723 60.4189 10.3764 58.4917 C 10.2212 57.4811 13.5428 59.7966 15.0786 59.3378 C 16.6298 58.8762 18.6358 57.7744 18.959 56.0945 C 19.2622 54.4588 18.0706 52.5335 16.7221 51.7231 C 15.2247 50.893 11.7295 52.7666 11.7003 51.9112 C 11.672 50.9335 15.8145 49.7048 16.859 47.7278 C 17.7091 46.1202 18.2158 43.4796 16.996 42.0873 C 15.6346 40.6941 12.7147 42.2048 11.1981 41.6172 C 10.7051 41.4245 12.3477 41.1077 12.796 40.6772 C 13.5072 39.9937 14.2267 39.2426 14.6221 38.327 C 14.8686 37.7544 14.833 37.0343 14.6221 36.4468 C 14.0551 34.8712 13.3657 33.2862 12.3394 31.9814 C 11.4246 30.8195 10.3563 29.7468 9.0981 29.0201 C 6.643 27.6081 1.3491 26.324 0.972 25.6358 C 0.7593 24.9486 5.5382 25.9357 7.546 25.4008 C 9.1611 24.9684 11.5195 24.4918 11.8829 22.8156 C 12.3148 20.8029 9.9482 19.0816 9.3264 17.0811 C 8.7694 15.2893 7.1114 11.7677 8.0481 11.5346 C 9.3839 11.2347 11.6419 15.4735 13.9373 16 C 15.337 16.3224 16.9238 14.9574 17.5895 13.6498 C 18.7381 11.3926 18.1628 8.5414 18.959 6.1291 C 19.5507 4.3364 20.6883 0.9577 21.6982 1.1937 C 22.781 1.4673 22.5299 5.4053 23.0677 7.5393 C 23.4439 8.7003 23.4083 10.1931 24.4373 11.0646 C 25.3832 11.8505 26.9016 11.5675 28.0895 11.2996 C 31.1911 9.6056 31.8658 8.8713 33.1112 8.0093 C 34.3393 7.1322 35.6157 5.7869 36.5351 5.6591 C 36.3215 7.6304 35.3336 9.1233 34.9373 10.8295 C 34.2753 14.7704 33.7677 15.7744 35.3938 16.9401 C 38.1174 18.887 45.1315 16.9974 45.5286 18.1152 C 45.8053 19.2762 39.309 20.2849 36.9917 22.3456 C 35.8458 23.3655 35.487 25.2589 35.6221 26.8109 C 35.7874 28.6864 36.5269 30.4979 37.5395 31.9814 C 38.5393 33.2721 42.2115 34.2085 41.4199 34.8016 C 40.0257 35.8423 35.9462 34.1248 33.4308 35.2717 C 31.9288 35.9617 32.1434 38.3871 31.0569 39.7371 C 30.1703 40.8567 28.2209 41.354 28.0438 42.7924 C 27.8521 44.3501 29.1157 45.9896 30.1438 47.2577 C 30.6451 47.8707 31.5408 47.9496 32.2438 48.2918 C 33.2473 48.6397 35.8065 48.6378 35.2569 49.3259 C 33.9339 50.9776 30.0726 51.0162 28.2721 52.9922 C 27.3691 54.0677 27.1545 56.2938 28.1351 57.3636 C 29.6599 59.0248 33.7604 58.0875 34.4808 59.4788 C 34.9747 60.4405 31.9717 61.0582 30.8286 62.064 C 29.848 62.9252 27.916 63.5682 28.0895 64.8843 C 28.3415 66.787 30.2744 68.2028 31.8786 69.3027 C 33.1441 70.1788 36.515 69.5762 36.3525 70.5718 C 36.1352 71.8964 32.462 72.3739 31.0112 73.9091 C 29.9923 74.9921 28.9833 76.6306 29.4134 78.0455 C 29.8407 79.4471 31.7316 79.9388 33.1112 80.4897 C 34.0471 80.8732 35.8504 80.0666 36.1699 80.7717 C 36.4749 81.4476 34.5967 82.2232 34.2525 83.2159 C 33.6307 85.0086 32.5734 87.1248 33.3395 88.8564 C 34.1137 90.3878 35.9946 90.3399 37.4025 90.8776 C 39.3427 91.6193 43.6121 91.6973 43.4286 92.4757 C 43.2004 93.3538 38.4352 93.3575 36.4438 94.7319 C 35.0578 95.688 34.3018 97.5221 33.933 99.1973 C 33.617 100.6319 33.9129 102.2601 34.3895 103.6627 Z "/>
  <path id="ID0.3830706034786999" fill="#FFFFFF" stroke="#FFFFFF" stroke-width="1" stroke-linecap="round" d="M 17.2 30.35 C 15.993 28.062 13.15 26.837 12.45 24.5 C 11.901 22.3 12.375 19.498 13.8 18 C 14.954 16.792 17.215 18.125 18.8 17.6 C 20.335 17.09 21.233 15.21 22.8 15.1 C 24.321 14.994 25.505 16.787 27.1 17 C 28.589 17.22 30.532 15.338 31.7 16.35 C 33.225 17.674 32.855 20.164 33.3 22.1 C 33.546 23.168 34.453 24.406 33.95 25.35 C 32.271 28.043 28.632 29.285 27.3 32.1 C 25.847 35.174 25.827 38.801 25.8 42.2 C 25.786 43.948 27.36 45.456 27.45 47.2 C 27.412 49.064 25.993 50.771 25.95 52.6 C 25.914 54.216 27.086 55.759 26.95 57.35 C 26.865 60.343 25.335 63.16 25.3 66.1 C 25.288 67.125 26.85 67.676 26.95 68.7 C 27.208 71.323 26.101 73.977 26.45 76.6 C 26.797 79.205 27.719 81.837 29.2 84 C 30.093 85.512 32.524 85.642 33.3 87.2 C 33.905 88.418 32.245 89.816 32.45 91.2 C 32.558 92.989 34.383 94.501 34.2 96.35 C 34.003 98.324 32.684 100.288 31.2 101.5 C 30.157 102.352 28.441 101.637 27.2 102.1 C 25.37 102.717 23.908 105.159 22.1 104.7 C 19.95 104.154 19.247 101.288 17.7 99.7 C 17.104 99.091 16.125 98.912 15.8 98.2 C 14.778 95.804 13.259 93.221 13.8 90.7 C 14.605 86.954 18.53 84.421 19.3 80.7 C 20.837 73.271 20.876 65.466 20.6 57.85 C 20.531 55.946 18.683 54.698 18.45 52.85 C 18.165 51.121 19.135 49.419 19.1 47.5 C 19.015 43.056 18.423 38.764 17.95 34.2 C 17.814 32.897 17.811 31.503 17.2 30.35 Z "/>
  <g id="ID0.10799971781671047">
    <path id="ID0.47299289889633656" fill="url(#grad_1-1,0,0,-1,271.55,206.79999999999998)" stroke="none" stroke-linecap="round" d="M 29.6 26 C 29.262 26.002 28.943 25.714 28.713 25.414 C 28.413 25.018 28.2 24.552 28.2 24 C 28.2 23.448 28.447 23.008 28.713 22.586 C 28.905 22.287 29.079 21.918 29.4 21.9 C 29.892 21.874 30.326 22.174 30.65 22.5 C 31.12 22.899 31.62 23.397 31.7 24 C 31.763 24.48 31.302 24.912 30.95 25.25 C 30.609 25.588 30.121 25.94 29.6 26 Z " stroke-width="1"/>
    <path id="ID0.47299289889633656" fill="url(#grad_2-,0,0,-1,-225.15,206.79999999999998)" stroke="none" stroke-linecap="round" d="M 16.8 26 C 17.138 26.002 17.457 25.714 17.687 25.414 C 17.987 25.018 18.2 24.552 18.2 24 C 18.2 23.448 17.953 23.008 17.687 22.586 C 17.495 22.287 17.321 21.918 17 21.9 C 16.508 21.874 16.074 22.174 15.75 22.5 C 15.28 22.899 14.78 23.397 14.7 24 C 14.637 24.48 15.098 24.912 15.45 25.25 C 15.791 25.588 16.279 25.94 16.8 26 Z " stroke-width="1"/>
    <path id="ID0.8711454072035849" fill="#FFEB61" stroke="#E7D457" stroke-width="0.9858663445703953" stroke-linecap="round" d="M 23.1716 31.4653 C 24.9247 31.4653 26.5138 30.9366 27.6647 30.0808 C 28.8146 29.226 29.5271 28.0462 29.5271 26.743 C 29.5271 25.4397 28.8146 24.2599 27.6647 23.4051 C 26.5138 22.5493 24.9247 22.0206 23.1716 22.0206 C 21.4185 22.0206 19.8294 22.5493 18.6786 23.4051 C 17.5287 24.2599 16.8161 25.4397 16.8161 26.743 C 16.8161 28.0462 17.5287 29.226 18.6786 30.0808 C 19.8294 30.9366 21.4185 31.4653 23.1716 31.4653 Z "/>
    <path id="ID0.69021091517061" fill="#FFFFFF" stroke="url(#grad_3)" stroke-width="1.6521392390690874" d="M 24.4643 29.6071 C 24.6712 29.8151 25.0543 29.7422 25.507 29.4558 C 25.9576 29.1701 26.4788 28.6718 26.9611 28.0282 C 27.4435 27.3846 27.7961 26.7168 27.977 26.16 C 28.1581 25.6006 28.1665 25.1511 27.9595 24.9431 C 27.7526 24.735 27.3695 24.8079 26.9168 25.0943 C 26.4662 25.38 25.945 25.8783 25.4627 26.522 C 24.9803 27.1656 24.6277 27.8333 24.4468 28.3902 C 24.2657 28.9496 24.2573 29.399 24.4643 29.6071 Z "/>
    <path id="ID0.69021091517061" fill="#FFFFFF" stroke="#F1D6AB" stroke-width="0.8432454819201701" d="M 20.3495 28.1833 C 20.4145 28.1581 20.4496 28.0533 20.4538 27.904 C 20.4579 27.7553 20.4314 27.562 20.3729 27.36 C 20.3145 27.158 20.2351 26.9852 20.1545 26.8694 C 20.0734 26.7532 19.9909 26.694 19.9259 26.7192 C 19.861 26.7445 19.8259 26.8493 19.8217 26.9985 C 19.8176 27.1472 19.8441 27.3405 19.9026 27.5425 C 19.961 27.7446 20.0404 27.9173 20.121 28.0332 C 20.2021 28.1494 20.2846 28.2085 20.3495 28.1833 Z "/>
    <path id="ID0.69021091517061" fill="#FFFFFF" stroke="#F3DF5C" stroke-width="1.4798398243631934" stroke-linecap="round" d="M 22.8341 27.7539 C 22.9568 27.7307 23.1435 27.8389 23.2126 27.6673 C 23.3435 27.2839 23.3773 26.7876 23.3828 26.3242 C 23.3577 26.0237 23.2483 25.7145 23.1538 25.4618 C 23.0789 25.2568 22.9699 25.0659 22.8506 25.0649 C 22.7312 25.0639 22.6204 25.254 22.5425 25.4568 C 22.4515 25.69 22.3682 25.9654 22.3305 26.2259 C 22.3019 26.7411 22.2077 27.3176 22.3481 27.7499 C 22.4202 27.9799 22.673 27.7848 22.8341 27.7539 Z "/>
    <path id="ID0.6058828267268836" fill="#B2B2B2" stroke="#939393" stroke-width="0.9036240038786731" stroke-linecap="round" d="M 29.7549 21.7504 L 29.5271 27.7536 C 29.4743 28.3208 28.9804 27.3056 27.9326 26.9472 C 26.6569 26.4992 25.0623 26.2304 23.2855 26.2304 C 21.4632 26.2304 20.0426 26.5386 18.5929 26.9472 C 17.8102 27.1864 17.0075 28.5044 16.8161 27.888 L 17.0895 22.1984 C 17.1806 20.2729 18.6522 19.6699 19.823 18.8832 C 20.8682 18.1816 22.1921 17.8528 23.4678 17.808 C 24.789 17.808 26.2469 18.1216 27.477 18.7936 C 28.4337 19.376 29.5335 21.2092 29.7094 21.4368 L 29.7549 21.7504 Z "/>
    <path id="ID0.9674056498333812" fill="#CCCCCC" stroke="#CCCCCC" stroke-width="0.7384171619886385" stroke-linecap="round" d="M 24.8615 25.1529 C 24.8469 24.9339 25.0595 24.4869 25.1154 24.0748 C 25.156 23.7745 25.1681 23.4669 25.1788 23.1625 C 25.189 22.8863 25.2087 22.6069 25.1788 22.3332 C 25.1446 22.0213 25.0494 21.7253 24.9885 21.4209 C 24.9332 21.1456 24.8876 20.8661 24.8298 20.5916 C 24.7714 20.3138 24.6724 20.0475 24.6394 19.7623 C 24.6083 19.4894 24.482 19.1179 24.6394 18.9329 C 24.7974 18.7472 25.0671 18.9553 25.274 19.0159 C 25.4923 19.0797 25.7126 19.1643 25.9086 19.3061 C 26.1193 19.4587 26.3015 19.6752 26.4798 19.8867 C 26.6404 20.0766 26.806 20.2706 26.924 20.5087 C 27.0421 20.7475 27.1252 21.0203 27.1779 21.2965 C 27.2318 21.5793 27.2306 21.8762 27.2413 22.1673 C 27.2515 22.4435 27.2724 22.7238 27.2413 22.9966 C 27.2083 23.2819 27.1144 23.5498 27.051 23.826 C 26.9875 24.1021 26.9462 24.3899 26.8606 24.6553 C 26.7762 24.9174 26.7216 25.2383 26.5433 25.4017 C 26.3681 25.5617 26.1225 25.5194 25.9086 25.5261 C 25.6961 25.5327 25.4841 25.4863 25.274 25.4431 C 25.1452 25.4166 24.9104 25.4639 24.8933 25.3187 Z "/>
    <path id="ID0.9674056498333812" fill="#E5E5E5" stroke="#E5E5E5" stroke-width="0.6933835235624416" stroke-linecap="round" d="M 27.126 25.561 C 26.9542 25.3521 27.0562 24.9173 27.0423 24.5931 C 27.015 23.9874 27.1009 23.4381 27.0702 22.8993 C 26.9609 21.7653 26.5621 20.6627 26.624 19.5924 C 26.6402 19.319 26.9999 19.6142 27.1817 19.6731 C 27.3736 19.7352 27.5671 19.8175 27.7394 19.9554 C 27.9246 20.1038 28.0846 20.3143 28.2413 20.52 C 28.3824 20.7047 28.528 20.8934 28.6317 21.1249 C 28.7355 21.3572 28.8158 21.6193 28.8548 21.8911 C 28.8966 23.6502 28.8788 24.36 28.8827 25.2787 C 28.8827 25.6545 29.0717 26.2764 28.8827 26.4079 C 28.6607 26.5603 28.3367 25.9852 28.0183 25.8433 C 27.7456 25.6997 27.3725 25.8578 27.126 25.561 Z "/>
    <path id="ID0.9674056498333812" fill="url(#grad_4-0.6911222338676453,2.1427356897925696e-18,2.8001662261453746e-18,-0.88030606508255,188.25,184.2)" stroke="#CCCCCC" stroke-linecap="round" d="M 18.9942 26.3611 C 21.138 26.009 23.3773 25.9844 25.5598 25.5688 C 26.0892 25.4993 25.5813 25.3074 25.1452 25.2607 C 23.4015 25.0732 21.3122 26.2537 19.8926 25.0407 C 19.0619 24.3303 20.1732 22.4799 20.3419 21.2553 C 20.4227 20.6717 20.8408 19.8337 20.5492 19.4947 C 20.2534 19.1514 19.5512 19.5423 19.1669 19.8909 C 18.5816 20.4226 17.9962 21.1286 17.7847 22.0036 C 17.5069 23.1524 17.7315 24.4112 17.6465 25.6129 C 17.6624 26.0548 17.2975 26.8083 17.5774 26.9333 C 18.0052 27.1182 18.4579 26.4492 18.9942 26.3611 Z " stroke-width="0.791387613741625"/>
    <path id="ID0.47299289889633656" fill="url(#grad_5-,0,0,-1,-218.2,205.2)" stroke="none" d="M 23.4 24.4 C 23.883 24.4 24.32 24.176 24.637 23.814 C 24.954 23.452 25.15 22.952 25.15 22.4 C 25.15 21.848 24.954 21.348 24.637 20.986 C 24.32 20.624 23.883 20.4 23.4 20.4 C 22.917 20.4 22.48 20.624 22.163 20.986 C 21.846 21.348 21.65 21.848 21.65 22.4 C 21.65 22.952 21.846 23.452 22.163 23.814 C 22.48 24.176 22.917 24.4 23.4 24.4 Z " stroke-width="1"/>
  </g>
  <g id="ID0.10799971781671047">
    <path id="ID0.47299289889633656" fill="url(#grad_6-1,0,0,1,271.85,-87.1)" stroke="none" stroke-linecap="round" d="M 29.9 93.7 C 29.562 93.698 29.243 93.986 29.013 94.286 C 28.713 94.682 28.5 95.148 28.5 95.7 C 28.5 96.252 28.747 96.692 29.013 97.114 C 29.205 97.413 29.379 97.782 29.7 97.8 C 30.192 97.826 30.626 97.526 30.95 97.2 C 31.42 96.801 31.92 96.303 32 95.7 C 32.063 95.22 31.602 94.788 31.25 94.45 C 30.909 94.112 30.421 93.76 29.9 93.7 Z " stroke-width="1"/>
    <path id="ID0.47299289889633656" fill="url(#grad_7-,0,0,1,-224.85,-87.1)" stroke="none" stroke-linecap="round" d="M 17.1 93.7 C 17.438 93.698 17.757 93.986 17.987 94.286 C 18.287 94.682 18.5 95.148 18.5 95.7 C 18.5 96.252 18.253 96.692 17.987 97.114 C 17.795 97.413 17.621 97.782 17.3 97.8 C 16.808 97.826 16.374 97.526 16.05 97.2 C 15.58 96.801 15.08 96.303 15 95.7 C 14.937 95.22 15.398 94.788 15.75 94.45 C 16.091 94.112 16.579 93.76 17.1 93.7 Z " stroke-width="1"/>
    <path id="ID0.8711454072035849" fill="#FFEB61" stroke="#E7D457" stroke-width="0.9858663445703953" stroke-linecap="round" d="M 23.5216 88.2347 C 25.2747 88.2347 26.8638 88.7634 28.0147 89.6192 C 29.1646 90.474 29.8771 91.6538 29.8771 92.957 C 29.8771 94.2603 29.1646 95.4401 28.0147 96.2949 C 26.8638 97.1507 25.2747 97.6794 23.5216 97.6794 C 21.7685 97.6794 20.1794 97.1507 19.0286 96.2949 C 17.8787 95.4401 17.1661 94.2603 17.1661 92.957 C 17.1661 91.6538 17.8787 90.474 19.0286 89.6192 C 20.1794 88.7634 21.7685 88.2347 23.5216 88.2347 Z "/>
    <path id="ID0.69021091517061" fill="#FFFFFF" stroke="url(#grad_8)" stroke-width="1.6521392390690874" d="M 24.7643 90.0429 C 24.9712 89.8349 25.3543 89.9078 25.807 90.1942 C 26.2576 90.4799 26.7788 90.9782 27.2611 91.6218 C 27.7435 92.2654 28.0961 92.9332 28.277 93.49 C 28.4581 94.0494 28.4665 94.4989 28.2595 94.7069 C 28.0526 94.915 27.6695 94.8421 27.2168 94.5557 C 26.7662 94.27 26.245 93.7717 25.7627 93.128 C 25.2803 92.4844 24.9277 91.8167 24.7468 91.2598 C 24.5657 90.7004 24.5573 90.251 24.7643 90.0429 Z "/>
    <path id="ID0.69021091517061" fill="#FFFFFF" stroke="#F1D6AB" stroke-width="0.8432454819201701" d="M 20.6495 91.5167 C 20.7145 91.5419 20.7496 91.6467 20.7538 91.796 C 20.7579 91.9447 20.7314 92.138 20.6729 92.34 C 20.6145 92.542 20.5351 92.7148 20.4545 92.8306 C 20.3734 92.9468 20.2909 93.006 20.2259 92.9808 C 20.161 92.9555 20.1259 92.8507 20.1217 92.7015 C 20.1176 92.5528 20.1441 92.3595 20.2026 92.1575 C 20.261 91.9554 20.3404 91.7827 20.421 91.6668 C 20.5021 91.5506 20.5846 91.4915 20.6495 91.5167 Z "/>
    <path id="ID0.69021091517061" fill="#FFFFFF" stroke="#F3DF5C" stroke-width="1.4798398243631934" stroke-linecap="round" d="M 23.1341 91.9461 C 23.2568 91.9693 23.4435 91.8611 23.5126 92.0327 C 23.6435 92.4161 23.6773 92.9124 23.6828 93.3758 C 23.6577 93.6763 23.5483 93.9855 23.4538 94.2382 C 23.3789 94.4432 23.2699 94.6341 23.1506 94.6351 C 23.0312 94.6361 22.9204 94.446 22.8425 94.2432 C 22.7515 94.01 22.6682 93.7346 22.6305 93.4741 C 22.6019 92.9589 22.5077 92.3824 22.6481 91.9501 C 22.7202 91.7201 22.973 91.9152 23.1341 91.9461 Z "/>
    <path id="ID0.6058828267268836" fill="#B2B2B2" stroke="#939393" stroke-width="0.9036240038786731" stroke-linecap="round" d="M 30.1049 97.9496 L 29.8771 91.9464 C 29.8243 91.3792 29.3304 92.3944 28.2826 92.7528 C 27.0069 93.2008 25.4123 93.4696 23.6355 93.4696 C 21.8132 93.4696 20.3926 93.1614 18.9429 92.7528 C 18.1602 92.5136 17.3575 91.1956 17.1661 91.812 L 17.4395 97.5016 C 17.5306 99.4271 19.0022 100.0301 20.173 100.8168 C 21.2182 101.5184 22.5421 101.8472 23.8178 101.892 C 25.139 101.892 26.5969 101.5784 27.827 100.9064 C 28.7837 100.324 29.8835 98.4908 30.0594 98.2632 L 30.1049 97.9496 Z "/>
    <path id="ID0.9674056498333812" fill="#CCCCCC" stroke="#CCCCCC" stroke-width="0.7384171619886385" stroke-linecap="round" d="M 25.2115 94.5471 C 25.1969 94.7661 25.4095 95.2131 25.4654 95.6252 C 25.506 95.9255 25.5181 96.2331 25.5288 96.5375 C 25.539 96.8137 25.5587 97.0931 25.5288 97.3668 C 25.4946 97.6787 25.3994 97.9747 25.3385 98.2791 C 25.2832 98.5544 25.2376 98.8339 25.1798 99.1084 C 25.1214 99.3862 25.0224 99.6525 24.9894 99.9377 C 24.9583 100.2106 24.832 100.5821 24.9894 100.7671 C 25.1474 100.9528 25.4171 100.7447 25.624 100.6841 C 25.8423 100.6203 26.0626 100.5357 26.2586 100.3939 C 26.4693 100.2413 26.6515 100.0248 26.8298 99.8133 C 26.9904 99.6234 27.156 99.4294 27.274 99.1913 C 27.3921 98.9525 27.4752 98.6797 27.5279 98.4035 C 27.5818 98.1207 27.5806 97.8238 27.5913 97.5327 C 27.6015 97.2565 27.6224 96.9762 27.5913 96.7034 C 27.5583 96.4181 27.4644 96.1502 27.401 95.874 C 27.3375 95.5979 27.2962 95.3101 27.2106 95.0447 C 27.1262 94.7826 27.0716 94.4617 26.8933 94.2983 C 26.7181 94.1383 26.4725 94.1806 26.2586 94.1739 C 26.0461 94.1673 25.8341 94.2137 25.624 94.2569 C 25.4952 94.2834 25.2604 94.2361 25.2433 94.3813 Z "/>
    <path id="ID0.9674056498333812" fill="#E5E5E5" stroke="#E5E5E5" stroke-width="0.6933835235624416" stroke-linecap="round" d="M 27.426 94.139 C 27.2542 94.3479 27.3562 94.7827 27.3423 95.1069 C 27.315 95.7126 27.4009 96.2619 27.3702 96.8007 C 27.2609 97.9347 26.8621 99.0373 26.924 100.1076 C 26.9402 100.381 27.2999 100.0858 27.4817 100.0269 C 27.6736 99.9648 27.8671 99.8825 28.0394 99.7446 C 28.2246 99.5962 28.3846 99.3857 28.5413 99.18 C 28.6824 98.9953 28.828 98.8066 28.9317 98.5751 C 29.0355 98.3428 29.1158 98.0807 29.1548 97.8089 C 29.1966 96.0498 29.1788 95.34 29.1827 94.4213 C 29.1827 94.0455 29.3717 93.4236 29.1827 93.2921 C 28.9607 93.1397 28.6367 93.7148 28.3183 93.8567 C 28.0456 94.0003 27.6725 93.8422 27.426 94.139 Z "/>
    <path id="ID0.9674056498333812" fill="url(#grad_9-0.6911222338676453,-2.1427356897925696e-18,2.8001662261453746e-18,0.88030606508255,188.55,-64.5)" stroke="#CCCCCC" stroke-linecap="round" d="M 19.2942 93.3389 C 21.438 93.691 23.6773 93.7156 25.8598 94.1312 C 26.3892 94.2007 25.8813 94.3926 25.4452 94.4393 C 23.7015 94.6268 21.6122 93.4463 20.1926 94.6593 C 19.3619 95.3697 20.4732 97.2201 20.6419 98.4447 C 20.7227 99.0283 21.1408 99.8663 20.8492 100.2053 C 20.5534 100.5486 19.8512 100.1577 19.4669 99.8091 C 18.8816 99.2774 18.2962 98.5714 18.0847 97.6964 C 17.8069 96.5476 18.0315 95.2888 17.9465 94.0871 C 17.9624 93.6452 17.5975 92.8917 17.8774 92.7667 C 18.3052 92.5818 18.7579 93.2508 19.2942 93.3389 Z " stroke-width="0.791387613741625"/>
    <path id="ID0.47299289889633656" fill="url(#grad_10-,0,0,1,-217.9,-85.5)" stroke="none" d="M 23.7 95.3 C 24.183 95.3 24.62 95.524 24.937 95.886 C 25.254 96.248 25.45 96.748 25.45 97.3 C 25.45 97.852 25.254 98.352 24.937 98.714 C 24.62 99.076 24.183 99.3 23.7 99.3 C 23.217 99.3 22.78 99.076 22.463 98.714 C 22.146 98.352 21.95 97.852 21.95 97.3 C 21.95 96.748 22.146 96.248 22.463 95.886 C 22.78 95.524 23.217 95.3 23.7 95.3 Z " stroke-width="1"/>
  </g>
</svg>