<svg xmlns="http://www.w3.org/2000/svg" xmlns:xlink="http://www.w3.org/1999/xlink" version="1.1" width="46.279682031021586" height="110.35351549659775" viewBox="1.9246662305066644 0.6364638255307733 46.279682031021586 110.35351549659775">
  <defs>
    <radialGradient id="grad_1" cx="0.5571" cy="0.6498999999999999" r="0.8448699999999999">
      <stop offset="0" stop-color="#FFEB61" stop-opacity="1"/>
      <stop offset="1" stop-color="#D5C451" stop-opacity="1"/>
    </radialGradient>
    <radialGradient id="grad_2" cx="0.5571" cy="0.6498999999999999" r="0.8448699999999999">
      <stop offset="0" stop-color="#FFEB61" stop-opacity="1"/>
      <stop offset="1" stop-color="#D5C451" stop-opacity="1"/>
    </radialGradient>
    <radialGradient id="grad_3" cx="0.5416" cy="0.45" r="0.715">
      <stop offset="0" stop-color="#FEFEFE" stop-opacity="1"/>
      <stop offset="1" stop-color="#FFEB61" stop-opacity="1"/>
    </radialGradient>
    <radialGradient id="grad_4" cx="0.6803" cy="0.25379999999999997" r="0.97006">
      <stop offset="0" stop-color="#E5E5E5" stop-opacity="1"/>
      <stop offset="1" stop-color="#CCCCCC" stop-opacity="1"/>
    </radialGradient>
    <radialGradient id="grad_5" cx="0.5571" cy="0.6498999999999999" r="0.8448699999999999">
      <stop offset="0" stop-color="#FFEB61" stop-opacity="1"/>
      <stop offset="1" stop-color="#D5C451" stop-opacity="1"/>
    </radialGradient>
    <radialGradient id="grad_6" cx="0.5571" cy="0.6498999999999999" r="0.8448699999999999">
      <stop offset="0" stop-color="#FFEB61" stop-opacity="1"/>
      <stop offset="1" stop-color="#D5C451" stop-opacity="1"/>
    </radialGradient>
    <radialGradient id="grad_7" cx="0.5571" cy="0.6498999999999999" r="0.8448699999999999">
      <stop offset="0" stop-color="#FFEB61" stop-opacity="1"/>
      <stop offset="1" stop-color="#D5C451" stop-opacity="1"/>
    </radialGradient>
    <radialGradient id="grad_8" cx="0.5416" cy="0.45" r="0.715">
      <stop offset="0" stop-color="#FEFEFE" stop-opacity="1"/>
      <stop offset="1" stop-color="#FFEB61" stop-opacity="1"/>
    </radialGradient>
    <radialGradient id="grad_9" cx="0.6803" cy="0.25379999999999997" r="0.97006">
      <stop offset="0" stop-color="#E5E5E5" stop-opacity="1"/>
      <stop offset="1" stop-color="#CCCCCC" stop-opacity="1"/>
    </radialGradient>
    <radialGradient id="grad_10" cx="0.5571" cy="0.6498999999999999" r="0.8448699999999999">
      <stop offset="0" stop-color="#FFEB61" stop-opacity="1"/>
      <stop offset="1" stop-color="#D5C451" stop-opacity="1"/>
    </radialGradient>
  <radialGradient id="grad_1-1,0,0,-1,272.55,200.85" cx="30.7527" cy="17.3844" r="3.2235" gradientUnits="userSpaceOnUse">
      <stop offset="0" stop-color="#FFEB61" stop-opacity="1"/>
      <stop offset="1" stop-color="#D5C451" stop-opacity="1"/>
    </radialGradient><radialGradient id="grad_2-,0,0,-1,-224.15,200.85" cx="17.6473" cy="17.3844" r="3.2235" gradientUnits="userSpaceOnUse">
      <stop offset="0" stop-color="#FFEB61" stop-opacity="1"/>
      <stop offset="1" stop-color="#D5C451" stop-opacity="1"/>
    </radialGradient><radialGradient id="grad_4-0.6911222338676453,2.1427356897925696e-18,2.8001662261453746e-18,-0.88030606508255,189.25,178.25" cx="21.1296" cy="19.0857" r="8.0397" gradientUnits="userSpaceOnUse">
      <stop offset="0" stop-color="#E5E5E5" stop-opacity="1"/>
      <stop offset="1" stop-color="#CCCCCC" stop-opacity="1"/>
    </radialGradient><radialGradient id="grad_5-,0,0,-1,-217.2,199.25" cx="24.5999" cy="15.8504" r="3.1753" gradientUnits="userSpaceOnUse">
      <stop offset="0" stop-color="#FFEB61" stop-opacity="1"/>
      <stop offset="1" stop-color="#D5C451" stop-opacity="1"/>
    </radialGradient><radialGradient id="grad_6-1,0,0,1,272.85,-93.05" cx="31.0527" cy="90.4156" r="3.2235" gradientUnits="userSpaceOnUse">
      <stop offset="0" stop-color="#FFEB61" stop-opacity="1"/>
      <stop offset="1" stop-color="#D5C451" stop-opacity="1"/>
    </radialGradient><radialGradient id="grad_7-,0,0,1,-223.85,-93.05" cx="17.9473" cy="90.4156" r="3.2235" gradientUnits="userSpaceOnUse">
      <stop offset="0" stop-color="#FFEB61" stop-opacity="1"/>
      <stop offset="1" stop-color="#D5C451" stop-opacity="1"/>
    </radialGradient><radialGradient id="grad_9-0.6911222338676453,-2.1427356897925696e-18,2.8001662261453746e-18,0.88030606508255,189.55,-70.45" cx="21.4296" cy="88.7143" r="8.0397" gradientUnits="userSpaceOnUse">
      <stop offset="0" stop-color="#E5E5E5" stop-opacity="1"/>
      <stop offset="1" stop-color="#CCCCCC" stop-opacity="1"/>
    </radialGradient><radialGradient id="grad_10-,0,0,1,-216.9,-91.45" cx="24.8999" cy="91.9496" r="3.1753" gradientUnits="userSpaceOnUse">
      <stop offset="0" stop-color="#FFEB61" stop-opacity="1"/>
      <stop offset="1" stop-color="#D5C451" stop-opacity="1"/>
    </radialGradient></defs>
  <!-- Exported by Scratch - http://scratch.mit.edu/ -->
  <path id="ID0.8408521916717291" fill="#FFFF8A" stroke="#F6C638" stroke-width="1.853324761734474" stroke-linecap="round" d="M 12.405 7.8385 C 11.7742 6.2782 9.1282 4.101 9.6332 3.6591 C 10.1391 3.2171 13.0668 5.0751 14.6066 5.917 C 16.3282 6.8609 17.7977 8.8795 19.6852 8.9252 C 20.9643 8.9578 21.6384 7.1503 22.2792 6.0092 C 23.0809 4.5848 22.9457 2.0298 23.9323 1.6062 C 24.6201 1.223 25.0168 3.4985 25.628 4.3954 C 26.7489 6.035 27.5088 8.3959 29.3723 9.3089 C 30.6052 9.899 32.034 8.604 33.4611 8.1985 C 35.0362 7.7498 37.5431 5.8 38.1353 6.654 C 38.8071 7.4689 36.4513 9.7393 35.9889 11.5363 C 35.8042 12.2571 36.1089 12.9265 36.3952 13.7383 C 36.572 14.2117 37.0055 14.4406 37.4652 14.7996 C 38.4295 15.5376 39.5828 16.1179 40.5601 16.7165 C 41.1226 17.0586 42.6065 17.3516 42.1795 17.8616 C 40.8021 19.5083 38.1726 19.6362 36.7635 21.2534 C 35.4438 22.7683 34.1092 24.8523 34.4477 26.844 C 34.7539 28.6266 38.8616 29.6624 38.0341 30.6322 C 36.9875 32.0009 31.8727 29.4062 30.6993 31.521 C 29.4987 33.69 31.8015 37.0094 33.5798 39.0833 C 34.7392 40.4354 38.1984 40.04 38.5444 40.8713 C 38.8034 41.5378 35.6842 41.2565 34.5953 42.1202 C 33.4317 43.0427 31.5078 44.4259 31.9267 45.9309 C 32.6794 48.6417 37.1236 50.6294 37.2553 52.5544 C 37.4293 53.5619 34.0651 51.3088 32.5382 51.7961 C 30.9958 52.2865 29.0107 53.4254 28.7188 55.1111 C 28.4462 56.7522 29.6734 58.6549 31.0368 59.44 C 32.5494 60.2421 36.0091 58.3037 36.0542 59.1585 C 36.1007 60.1355 31.9818 61.4411 30.9743 63.4372 C 30.1544 65.0603 29.6969 67.71 30.9424 69.0793 C 32.3295 70.4469 35.2208 68.8821 36.748 69.4413 C 37.2446 69.6248 35.6082 69.9721 35.168 70.4109 C 34.4696 71.1075 33.7642 71.8719 33.386 72.7948 C 33.1502 73.3718 33.1992 74.0911 33.421 74.6746 C 34.0173 76.2393 34.736 77.8112 35.7864 79.0967 C 36.7228 80.2414 37.8108 81.294 39.0823 81.9971 C 41.5634 83.3631 46.8802 84.5484 47.27 85.2294 C 47.4955 85.9125 42.6991 85.0146 40.7016 85.5869 C 39.0948 86.0493 36.7457 86.5698 36.4136 88.2524 C 36.0193 90.2728 38.4175 91.9497 39.0765 93.9383 C 39.6667 95.7194 41.3901 99.2095 40.4578 99.46 C 39.1278 99.7847 36.7913 95.5887 34.4865 95.1051 C 33.0811 94.8088 31.5199 96.2031 30.8788 97.5229 C 29.7724 99.8011 30.4006 102.6411 29.6495 105.0678 C 29.0913 106.8712 28.0168 110.2705 27.0028 110.0534 C 25.915 109.8 26.0927 105.858 25.5153 103.7344 C 25.1175 102.5806 25.1253 101.0874 24.0803 100.2353 C 23.1199 99.4671 21.607 99.7783 20.4243 100.0683 C 17.3548 101.8198 16.6939 102.5665 15.4647 103.4516 C 14.2533 104.3514 13.0021 105.7202 12.0852 105.8651 C 12.2621 103.8901 13.222 102.3791 13.5864 100.6658 C 14.1749 96.7133 14.6637 95.7 13.0162 94.5648 C 10.2568 92.669 3.2792 94.6889 2.8613 93.5787 C 2.563 92.4231 9.0394 91.2935 11.3179 89.1901 C 12.4446 88.1489 12.7681 86.2492 12.6041 84.6999 C 12.4039 82.8279 11.6308 81.0304 10.5907 79.5661 C 9.5671 78.2942 5.878 77.4264 6.6584 76.8186 C 8.033 75.7521 12.1438 77.3934 14.6374 76.1998 C 16.1263 75.482 15.8666 73.061 16.9278 71.691 C 17.7933 70.555 19.7331 70.0215 19.8834 68.5801 C 20.0461 67.0191 18.7521 65.4034 17.7006 64.1546 C 17.188 63.5511 16.291 63.4889 15.5817 63.1598 C 14.5719 62.8308 12.0131 62.8803 12.5499 62.1821 C 13.8419 60.506 17.7018 60.3955 19.4652 58.3863 C 20.348 57.2942 20.521 55.0645 19.5207 54.0131 C 17.9652 52.3807 13.8829 53.3941 13.1367 52.0165 C 12.6249 51.0641 15.6159 50.3907 16.7401 49.3637 C 17.7045 48.4844 19.6242 47.8055 19.4262 46.4929 C 19.1388 44.5952 17.1799 43.2157 15.5555 42.1458 C 14.2739 41.2934 10.9147 41.9587 11.0587 40.9603 C 11.2513 39.6319 14.9149 39.086 16.3369 37.5241 C 17.3355 36.4223 18.3137 34.7652 17.8574 33.3587 C 17.4041 31.9652 15.5043 31.5088 14.1147 30.9838 C 13.1718 30.6177 11.3839 31.4577 11.0513 30.7588 C 10.7338 30.0886 12.5971 29.2782 12.9228 28.2792 C 13.5111 26.4752 14.5288 24.3398 13.7306 22.6227 C 12.928 21.106 11.0483 21.189 9.6306 20.6776 C 7.6769 19.9721 3.4068 19.9736 3.5758 19.192 C 3.7877 18.3098 8.552 18.2173 10.5174 16.806 C 11.8853 15.8243 12.607 13.9765 12.9446 12.2947 C 13.2338 10.8545 12.9077 9.232 12.405 7.8385 Z "/>
  <path id="ID0.3830706034786999" fill="#FFFFFF" stroke="#FFFFFF" stroke-width="1" stroke-linecap="round" d="M 18.2 24.1 C 16.993 21.812 14.15 20.587 13.45 18.25 C 12.901 16.05 13.375 13.248 14.8 11.75 C 15.954 10.542 18.215 11.875 19.8 11.35 C 21.335 10.84 22.233 8.96 23.8 8.85 C 25.321 8.744 26.505 10.537 28.1 10.75 C 29.589 10.97 31.532 9.088 32.7 10.1 C 34.225 11.424 33.855 13.914 34.3 15.85 C 34.546 16.918 35.453 18.156 34.95 19.1 C 33.271 21.793 29.632 23.035 28.3 25.85 C 26.847 28.924 26.827 32.551 26.8 35.95 C 26.786 37.698 28.36 39.206 28.45 40.95 C 28.412 42.814 26.993 44.521 26.95 46.35 C 26.914 47.966 28.086 49.509 27.95 51.1 C 27.865 54.093 26.335 56.91 26.3 59.85 C 26.288 60.875 27.85 61.426 27.95 62.45 C 28.208 65.073 27.101 67.727 27.45 70.35 C 27.797 72.955 28.719 75.587 30.2 77.75 C 31.093 79.262 33.524 79.392 34.3 80.95 C 34.905 82.168 33.245 83.566 33.45 84.95 C 33.558 86.739 35.383 88.251 35.2 90.1 C 35.003 92.074 33.684 94.038 32.2 95.25 C 31.157 96.102 29.441 95.387 28.2 95.85 C 26.37 96.467 24.908 98.909 23.1 98.45 C 20.95 97.904 20.247 95.038 18.7 93.45 C 18.104 92.841 17.125 92.662 16.8 91.95 C 15.778 89.554 14.259 86.971 14.8 84.45 C 15.605 80.704 19.53 78.171 20.3 74.45 C 21.837 67.021 21.876 59.216 21.6 51.6 C 21.531 49.696 19.683 48.448 19.45 46.6 C 19.165 44.871 20.135 43.169 20.1 41.25 C 20.015 36.806 19.423 32.514 18.95 27.95 C 18.814 26.647 18.811 25.253 18.2 24.1 Z "/>
  <g id="ID0.10799971781671047">
    <path id="ID0.47299289889633656" fill="url(#grad_1-1,0,0,-1,272.55,200.85)" stroke="none" stroke-linecap="round" d="M 30.6 20.05 C 30.262 20.052 29.943 19.764 29.713 19.464 C 29.413 19.068 29.2 18.602 29.2 18.05 C 29.2 17.498 29.447 17.058 29.713 16.636 C 29.905 16.337 30.079 15.968 30.4 15.95 C 30.892 15.924 31.326 16.224 31.65 16.55 C 32.12 16.949 32.62 17.447 32.7 18.05 C 32.763 18.53 32.302 18.962 31.95 19.3 C 31.609 19.638 31.121 19.99 30.6 20.05 Z " stroke-width="1"/>
    <path id="ID0.47299289889633656" fill="url(#grad_2-,0,0,-1,-224.15,200.85)" stroke="none" stroke-linecap="round" d="M 17.8 20.05 C 18.138 20.052 18.457 19.764 18.687 19.464 C 18.987 19.068 19.2 18.602 19.2 18.05 C 19.2 17.498 18.953 17.058 18.687 16.636 C 18.495 16.337 18.321 15.968 18 15.95 C 17.508 15.924 17.074 16.224 16.75 16.55 C 16.28 16.949 15.78 17.447 15.7 18.05 C 15.637 18.53 16.098 18.962 16.45 19.3 C 16.791 19.638 17.279 19.99 17.8 20.05 Z " stroke-width="1"/>
    <path id="ID0.8711454072035849" fill="#FFEB61" stroke="#E7D457" stroke-width="0.9858663445703953" stroke-linecap="round" d="M 24.1716 25.5153 C 25.9247 25.5153 27.5138 24.9866 28.6647 24.1308 C 29.8146 23.276 30.5271 22.0962 30.5271 20.793 C 30.5271 19.4897 29.8146 18.3099 28.6647 17.4551 C 27.5138 16.5993 25.9247 16.0706 24.1716 16.0706 C 22.4185 16.0706 20.8294 16.5993 19.6786 17.4551 C 18.5287 18.3099 17.8161 19.4897 17.8161 20.793 C 17.8161 22.0962 18.5287 23.276 19.6786 24.1308 C 20.8294 24.9866 22.4185 25.5153 24.1716 25.5153 Z "/>
    <path id="ID0.69021091517061" fill="#FFFFFF" stroke="url(#grad_3)" stroke-width="1.6521392390690874" d="M 25.4643 23.6571 C 25.6712 23.8651 26.0543 23.7922 26.507 23.5058 C 26.9576 23.2201 27.4788 22.7218 27.9611 22.0782 C 28.4435 21.4346 28.7961 20.7668 28.977 20.21 C 29.1581 19.6506 29.1665 19.2011 28.9595 18.9931 C 28.7526 18.785 28.3695 18.8579 27.9168 19.1443 C 27.4662 19.43 26.945 19.9283 26.4627 20.572 C 25.9803 21.2156 25.6277 21.8833 25.4468 22.4402 C 25.2657 22.9996 25.2573 23.449 25.4643 23.6571 Z "/>
    <path id="ID0.69021091517061" fill="#FFFFFF" stroke="#F1D6AB" stroke-width="0.8432454819201701" d="M 21.3495 22.2333 C 21.4145 22.2081 21.4496 22.1033 21.4538 21.954 C 21.4579 21.8053 21.4314 21.612 21.3729 21.41 C 21.3145 21.208 21.2351 21.0352 21.1545 20.9194 C 21.0734 20.8032 20.9909 20.744 20.9259 20.7692 C 20.861 20.7945 20.8259 20.8993 20.8217 21.0485 C 20.8176 21.1972 20.8441 21.3905 20.9026 21.5925 C 20.961 21.7946 21.0404 21.9673 21.121 22.0832 C 21.2021 22.1994 21.2846 22.2585 21.3495 22.2333 Z "/>
    <path id="ID0.69021091517061" fill="#FFFFFF" stroke="#F3DF5C" stroke-width="1.4798398243631934" stroke-linecap="round" d="M 23.8341 21.8039 C 23.9568 21.7807 24.1435 21.8889 24.2126 21.7173 C 24.3435 21.3339 24.3773 20.8376 24.3828 20.3742 C 24.3577 20.0737 24.2483 19.7645 24.1538 19.5118 C 24.0789 19.3068 23.9699 19.1159 23.8506 19.1149 C 23.7312 19.1139 23.6204 19.304 23.5425 19.5068 C 23.4515 19.74 23.3682 20.0154 23.3305 20.2759 C 23.3019 20.7911 23.2077 21.3676 23.3481 21.7999 C 23.4202 22.0299 23.673 21.8348 23.8341 21.8039 Z "/>
    <path id="ID0.6058828267268836" fill="#B2B2B2" stroke="#939393" stroke-width="0.9036240038786731" stroke-linecap="round" d="M 30.7549 15.8004 L 30.5271 21.8036 C 30.4743 22.3708 29.9804 21.3556 28.9326 20.9972 C 27.6569 20.5492 26.0623 20.2804 24.2855 20.2804 C 22.4632 20.2804 21.0426 20.5886 19.5929 20.9972 C 18.8102 21.2364 18.0075 22.5544 17.8161 21.938 L 18.0895 16.2484 C 18.1806 14.3229 19.6522 13.7199 20.823 12.9332 C 21.8682 12.2316 23.1921 11.9028 24.4678 11.858 C 25.789 11.858 27.2469 12.1716 28.477 12.8436 C 29.4337 13.426 30.5335 15.2592 30.7094 15.4868 L 30.7549 15.8004 Z "/>
    <path id="ID0.9674056498333812" fill="#CCCCCC" stroke="#CCCCCC" stroke-width="0.7384171619886385" stroke-linecap="round" d="M 25.8615 19.2029 C 25.8469 18.9839 26.0595 18.5369 26.1154 18.1248 C 26.156 17.8245 26.1681 17.5169 26.1788 17.2125 C 26.189 16.9363 26.2087 16.6569 26.1788 16.3832 C 26.1446 16.0713 26.0494 15.7753 25.9885 15.4709 C 25.9332 15.1956 25.8876 14.9161 25.8298 14.6416 C 25.7714 14.3638 25.6724 14.0975 25.6394 13.8123 C 25.6083 13.5394 25.482 13.1679 25.6394 12.9829 C 25.7974 12.7972 26.0671 13.0053 26.274 13.0659 C 26.4923 13.1297 26.7126 13.2143 26.9086 13.3561 C 27.1193 13.5087 27.3015 13.7252 27.4798 13.9367 C 27.6404 14.1266 27.806 14.3206 27.924 14.5587 C 28.0421 14.7975 28.1252 15.0703 28.1779 15.3465 C 28.2318 15.6293 28.2306 15.9262 28.2413 16.2173 C 28.2515 16.4935 28.2724 16.7738 28.2413 17.0466 C 28.2083 17.3319 28.1144 17.5998 28.051 17.876 C 27.9875 18.1521 27.9462 18.4399 27.8606 18.7053 C 27.7762 18.9674 27.7216 19.2883 27.5433 19.4517 C 27.3681 19.6117 27.1225 19.5694 26.9086 19.5761 C 26.6961 19.5827 26.4841 19.5363 26.274 19.4931 C 26.1452 19.4666 25.9104 19.5139 25.8933 19.3687 Z "/>
    <path id="ID0.9674056498333812" fill="#E5E5E5" stroke="#E5E5E5" stroke-width="0.6933835235624416" stroke-linecap="round" d="M 28.126 19.611 C 27.9542 19.4021 28.0562 18.9673 28.0423 18.6431 C 28.015 18.0374 28.1009 17.4881 28.0702 16.9493 C 27.9609 15.8153 27.5621 14.7127 27.624 13.6424 C 27.6402 13.369 27.9999 13.6642 28.1817 13.7231 C 28.3736 13.7852 28.5671 13.8675 28.7394 14.0054 C 28.9246 14.1538 29.0846 14.3643 29.2413 14.57 C 29.3824 14.7547 29.528 14.9434 29.6317 15.1749 C 29.7355 15.4072 29.8158 15.6693 29.8548 15.9411 C 29.8966 17.7002 29.8788 18.41 29.8827 19.3287 C 29.8827 19.7045 30.0717 20.3264 29.8827 20.4579 C 29.6607 20.6103 29.3367 20.0352 29.0183 19.8933 C 28.7456 19.7497 28.3725 19.9078 28.126 19.611 Z "/>
    <path id="ID0.9674056498333812" fill="url(#grad_4-0.6911222338676453,2.1427356897925696e-18,2.8001662261453746e-18,-0.88030606508255,189.25,178.25)" stroke="#CCCCCC" stroke-linecap="round" d="M 19.9942 20.4111 C 22.138 20.059 24.3773 20.0344 26.5598 19.6188 C 27.0892 19.5493 26.5813 19.3574 26.1452 19.3107 C 24.4015 19.1232 22.3122 20.3037 20.8926 19.0907 C 20.0619 18.3803 21.1732 16.5299 21.3419 15.3053 C 21.4227 14.7217 21.8408 13.8837 21.5492 13.5447 C 21.2534 13.2014 20.5512 13.5923 20.1669 13.9409 C 19.5816 14.4726 18.9962 15.1786 18.7847 16.0536 C 18.5069 17.2024 18.7315 18.4612 18.6465 19.6629 C 18.6624 20.1048 18.2975 20.8583 18.5774 20.9833 C 19.0052 21.1682 19.4579 20.4992 19.9942 20.4111 Z " stroke-width="0.791387613741625"/>
    <path id="ID0.47299289889633656" fill="url(#grad_5-,0,0,-1,-217.2,199.25)" stroke="none" d="M 24.4 18.45 C 24.883 18.45 25.32 18.226 25.637 17.864 C 25.954 17.502 26.15 17.002 26.15 16.45 C 26.15 15.898 25.954 15.398 25.637 15.036 C 25.32 14.674 24.883 14.45 24.4 14.45 C 23.917 14.45 23.48 14.674 23.163 15.036 C 22.846 15.398 22.65 15.898 22.65 16.45 C 22.65 17.002 22.846 17.502 23.163 17.864 C 23.48 18.226 23.917 18.45 24.4 18.45 Z " stroke-width="1"/>
  </g>
  <g id="ID0.10799971781671047">
    <path id="ID0.47299289889633656" fill="url(#grad_6-1,0,0,1,272.85,-93.05)" stroke="none" stroke-linecap="round" d="M 30.9 87.75 C 30.562 87.748 30.243 88.036 30.013 88.336 C 29.713 88.732 29.5 89.198 29.5 89.75 C 29.5 90.302 29.747 90.742 30.013 91.164 C 30.205 91.463 30.379 91.832 30.7 91.85 C 31.192 91.876 31.626 91.576 31.95 91.25 C 32.42 90.851 32.92 90.353 33 89.75 C 33.063 89.27 32.602 88.838 32.25 88.5 C 31.909 88.162 31.421 87.81 30.9 87.75 Z " stroke-width="1"/>
    <path id="ID0.47299289889633656" fill="url(#grad_7-,0,0,1,-223.85,-93.05)" stroke="none" stroke-linecap="round" d="M 18.1 87.75 C 18.438 87.748 18.757 88.036 18.987 88.336 C 19.287 88.732 19.5 89.198 19.5 89.75 C 19.5 90.302 19.253 90.742 18.987 91.164 C 18.795 91.463 18.621 91.832 18.3 91.85 C 17.808 91.876 17.374 91.576 17.05 91.25 C 16.58 90.851 16.08 90.353 16 89.75 C 15.937 89.27 16.398 88.838 16.75 88.5 C 17.091 88.162 17.579 87.81 18.1 87.75 Z " stroke-width="1"/>
    <path id="ID0.8711454072035849" fill="#FFEB61" stroke="#E7D457" stroke-width="0.9858663445703953" stroke-linecap="round" d="M 24.5216 82.2847 C 26.2747 82.2847 27.8638 82.8134 29.0147 83.6692 C 30.1646 84.524 30.8771 85.7038 30.8771 87.007 C 30.8771 88.3103 30.1646 89.4901 29.0147 90.3449 C 27.8638 91.2007 26.2747 91.7294 24.5216 91.7294 C 22.7685 91.7294 21.1794 91.2007 20.0286 90.3449 C 18.8787 89.4901 18.1661 88.3103 18.1661 87.007 C 18.1661 85.7038 18.8787 84.524 20.0286 83.6692 C 21.1794 82.8134 22.7685 82.2847 24.5216 82.2847 Z "/>
    <path id="ID0.69021091517061" fill="#FFFFFF" stroke="url(#grad_8)" stroke-width="1.6521392390690874" d="M 25.7643 84.0929 C 25.9712 83.8849 26.3543 83.9578 26.807 84.2442 C 27.2576 84.5299 27.7788 85.0282 28.2611 85.6718 C 28.7435 86.3154 29.0961 86.9832 29.277 87.54 C 29.4581 88.0994 29.4665 88.5489 29.2595 88.7569 C 29.0526 88.965 28.6695 88.8921 28.2168 88.6057 C 27.7662 88.32 27.245 87.8217 26.7627 87.178 C 26.2803 86.5344 25.9277 85.8667 25.7468 85.3098 C 25.5657 84.7504 25.5573 84.301 25.7643 84.0929 Z "/>
    <path id="ID0.69021091517061" fill="#FFFFFF" stroke="#F1D6AB" stroke-width="0.8432454819201701" d="M 21.6495 85.5667 C 21.7145 85.5919 21.7496 85.6967 21.7538 85.846 C 21.7579 85.9947 21.7314 86.188 21.6729 86.39 C 21.6145 86.592 21.5351 86.7648 21.4545 86.8806 C 21.3734 86.9968 21.2909 87.056 21.2259 87.0308 C 21.161 87.0055 21.1259 86.9007 21.1217 86.7515 C 21.1176 86.6028 21.1441 86.4095 21.2026 86.2075 C 21.261 86.0054 21.3404 85.8327 21.421 85.7168 C 21.5021 85.6006 21.5846 85.5415 21.6495 85.5667 Z "/>
    <path id="ID0.69021091517061" fill="#FFFFFF" stroke="#F3DF5C" stroke-width="1.4798398243631934" stroke-linecap="round" d="M 24.1341 85.9961 C 24.2568 86.0193 24.4435 85.9111 24.5126 86.0827 C 24.6435 86.4661 24.6773 86.9624 24.6828 87.4258 C 24.6577 87.7263 24.5483 88.0355 24.4538 88.2882 C 24.3789 88.4932 24.2699 88.6841 24.1506 88.6851 C 24.0312 88.6861 23.9204 88.496 23.8425 88.2932 C 23.7515 88.06 23.6682 87.7846 23.6305 87.5241 C 23.6019 87.0089 23.5077 86.4324 23.6481 86.0001 C 23.7202 85.7701 23.973 85.9652 24.1341 85.9961 Z "/>
    <path id="ID0.6058828267268836" fill="#B2B2B2" stroke="#939393" stroke-width="0.9036240038786731" stroke-linecap="round" d="M 31.1049 91.9996 L 30.8771 85.9964 C 30.8243 85.4292 30.3304 86.4444 29.2826 86.8028 C 28.0069 87.2508 26.4123 87.5196 24.6355 87.5196 C 22.8132 87.5196 21.3926 87.2114 19.9429 86.8028 C 19.1602 86.5636 18.3575 85.2456 18.1661 85.862 L 18.4395 91.5516 C 18.5306 93.4771 20.0022 94.0801 21.173 94.8668 C 22.2182 95.5684 23.5421 95.8972 24.8178 95.942 C 26.139 95.942 27.5969 95.6284 28.827 94.9564 C 29.7837 94.374 30.8835 92.5408 31.0594 92.3132 L 31.1049 91.9996 Z "/>
    <path id="ID0.9674056498333812" fill="#CCCCCC" stroke="#CCCCCC" stroke-width="0.7384171619886385" stroke-linecap="round" d="M 26.2115 88.5971 C 26.1969 88.8161 26.4095 89.2631 26.4654 89.6752 C 26.506 89.9755 26.5181 90.2831 26.5288 90.5875 C 26.539 90.8637 26.5587 91.1431 26.5288 91.4168 C 26.4946 91.7287 26.3994 92.0247 26.3385 92.3291 C 26.2832 92.6044 26.2376 92.8839 26.1798 93.1584 C 26.1214 93.4362 26.0224 93.7025 25.9894 93.9877 C 25.9583 94.2606 25.832 94.6321 25.9894 94.8171 C 26.1474 95.0028 26.4171 94.7947 26.624 94.7341 C 26.8423 94.6703 27.0626 94.5857 27.2586 94.4439 C 27.4693 94.2913 27.6515 94.0748 27.8298 93.8633 C 27.9904 93.6734 28.156 93.4794 28.274 93.2413 C 28.3921 93.0025 28.4752 92.7297 28.5279 92.4535 C 28.5818 92.1707 28.5806 91.8738 28.5913 91.5827 C 28.6015 91.3065 28.6224 91.0262 28.5913 90.7534 C 28.5583 90.4681 28.4644 90.2002 28.401 89.924 C 28.3375 89.6479 28.2962 89.3601 28.2106 89.0947 C 28.1262 88.8326 28.0716 88.5117 27.8933 88.3483 C 27.7181 88.1883 27.4725 88.2306 27.2586 88.2239 C 27.0461 88.2173 26.8341 88.2637 26.624 88.3069 C 26.4952 88.3334 26.2604 88.2861 26.2433 88.4313 Z "/>
    <path id="ID0.9674056498333812" fill="#E5E5E5" stroke="#E5E5E5" stroke-width="0.6933835235624416" stroke-linecap="round" d="M 28.426 88.189 C 28.2542 88.3979 28.3562 88.8327 28.3423 89.1569 C 28.315 89.7626 28.4009 90.3119 28.3702 90.8507 C 28.2609 91.9847 27.8621 93.0873 27.924 94.1576 C 27.9402 94.431 28.2999 94.1358 28.4817 94.0769 C 28.6736 94.0148 28.8671 93.9325 29.0394 93.7946 C 29.2246 93.6462 29.3846 93.4357 29.5413 93.23 C 29.6824 93.0453 29.828 92.8566 29.9317 92.6251 C 30.0355 92.3928 30.1158 92.1307 30.1548 91.8589 C 30.1966 90.0998 30.1788 89.39 30.1827 88.4713 C 30.1827 88.0955 30.3717 87.4736 30.1827 87.3421 C 29.9607 87.1897 29.6367 87.7648 29.3183 87.9067 C 29.0456 88.0503 28.6725 87.8922 28.426 88.189 Z "/>
    <path id="ID0.9674056498333812" fill="url(#grad_9-0.6911222338676453,-2.1427356897925696e-18,2.8001662261453746e-18,0.88030606508255,189.55,-70.45)" stroke="#CCCCCC" stroke-linecap="round" d="M 20.2942 87.3889 C 22.438 87.741 24.6773 87.7656 26.8598 88.1812 C 27.3892 88.2507 26.8813 88.4426 26.4452 88.4893 C 24.7015 88.6768 22.6122 87.4963 21.1926 88.7093 C 20.3619 89.4197 21.4732 91.2701 21.6419 92.4947 C 21.7227 93.0783 22.1408 93.9163 21.8492 94.2553 C 21.5534 94.5986 20.8512 94.2077 20.4669 93.8591 C 19.8816 93.3274 19.2962 92.6214 19.0847 91.7464 C 18.8069 90.5976 19.0315 89.3388 18.9465 88.1371 C 18.9624 87.6952 18.5975 86.9417 18.8774 86.8167 C 19.3052 86.6318 19.7579 87.3008 20.2942 87.3889 Z " stroke-width="0.791387613741625"/>
    <path id="ID0.47299289889633656" fill="url(#grad_10-,0,0,1,-216.9,-91.45)" stroke="none" d="M 24.7 89.35 C 25.183 89.35 25.62 89.574 25.937 89.936 C 26.254 90.298 26.45 90.798 26.45 91.35 C 26.45 91.902 26.254 92.402 25.937 92.764 C 25.62 93.126 25.183 93.35 24.7 93.35 C 24.217 93.35 23.78 93.126 23.463 92.764 C 23.146 92.402 22.95 91.902 22.95 91.35 C 22.95 90.798 23.146 90.298 23.463 89.936 C 23.78 89.574 24.217 89.35 24.7 89.35 Z " stroke-width="1"/>
  </g>
</svg>